<svg xmlns="http://www.w3.org/2000/svg" width="1636.8865966796875" height="1484.935546875" viewBox="-791.0097045898438 -745.1738891601562 1636.8865966796875 1484.935546875"><title>Neo4j Graph Visualization</title><desc>Created using Neo4j (http://www.neo4j.com/)</desc><g class="layer relationships"><g class="relationship" transform="translate(-105.844232100093 -238.29514079295822) rotate(450.8983293137677)"><path class="b-outline" fill="#A5ABB6" stroke="none" d="M 24.018736134675446,6.953439040707552 L 24.277555179777966,5.987513214418485 A 288.71915817503304 288.71915817503304 0 0 0 83.71787742809333,15.420459797714955 L 83.66493430277401,16.419057326993595 A 289.71915817503304 289.71915817503304 0 0 1 24.018736134675446,6.953439040707552 Z M 109.27012800673158,16.643418779775857 L 109.23469177231078,15.644046840360886 A 288.71915817503304 288.71915817503304 0 0 0 168.8311839367957,7.2541414824115 L 168.10562475627518,4.343202823565806 L 175.74430067085575,6.046326504337864 L 169.79859617748974,11.135393027539092 L 169.07303699696922,8.224454368693397 A 289.71915817503304 289.71915817503304 0 0 1 109.27012800673158,16.643418779775857"/><text text-anchor="middle" pointer-events="none" font-size="8px" fill="#000000" x="96.46943223566761" y="19.314277677762732" transform="rotate(180 96.46943223566761 16.314277677762732)" font-family="Helvetica Neue, Helvetica, Arial, sans-serif">voted</text></g><g class="relationship" transform="translate(-429.698715375663 -29.686862672719172) rotate(358.45850792174826)"><path class="b-outline" fill="#A5ABB6" stroke="none" d="M 24.018736134675446,6.953439040707552 L 24.277555179777966,5.987513214418485 A 523.6017023386945 523.6017023386945 0 0 0 144.12933918669196,23.594385942330746 L 144.0994189084796,24.593938230583717 A 524.6017023386945 524.6017023386945 0 0 1 24.018736134675446,6.953439040707552 Z M 169.69119602592875,24.73547053766481 L 169.67233305200267,23.735648459385516 A 523.6017023386945 523.6017023386945 0 0 0 289.7115254319557,7.455464502642446 L 288.9671664446269,4.54927632945358 L 296.61669100061783,6.202991561073386 L 290.7040040817274,11.330382066894268 L 289.95964509439864,8.424193893705402 A 524.6017023386945 524.6017023386945 0 0 1 169.69119602592875,24.73547053766481"/><text text-anchor="middle" pointer-events="none" font-size="8px" fill="#000000" x="156.89720942359955" y="27.320793900633475" font-family="Helvetica Neue, Helvetica, Arial, sans-serif">voted</text></g><g class="relationship" transform="translate(40.41812199811679 -325.29060300378615) rotate(477.5014656174932)"><path class="b-outline" fill="#A5ABB6" stroke="none" d="M 24.018736134675446,6.953439040707552 L 24.277555179777966,5.987513214418485 A 528.8330296557307 528.8330296557307 0 0 0 145.47809643645928,23.77480464642929 L 145.44846228424365,24.774365458497527 A 529.8330296557307 529.8330296557307 0 0 1 24.018736134675446,6.953439040707552 Z M 171.04005463235072,24.914740834496115 L 171.0213875445234,23.914915079760817 A 528.8330296557307 528.8330296557307 0 0 0 292.40976410925657,7.458275921710733 L 291.6651426021955,4.552155000065854 L 299.31481651093816,6.2051792255090215 L 293.402592785338,11.33310381723724 L 292.65797127827693,8.42698289559236 A 529.8330296557307 529.8330296557307 0 0 1 171.04005463235072,24.914740834496115"/><text text-anchor="middle" pointer-events="none" font-size="8px" fill="#000000" x="158.24615334987374" y="27.49909873594595" transform="rotate(180 158.24615334987374 24.49909873594595)" font-family="Helvetica Neue, Helvetica, Arial, sans-serif">voted</text></g><g class="relationship" transform="translate(1.490925949056899 -45.2726693745669) rotate(536.397502709823)"><path class="b-outline" fill="#A5ABB6" stroke="none" d="M 25 0.5 L 35.50297677089681 0.5 L 35.50297677089681 -0.5 L 25 -0.5 Z M 68.18657052089681 0.5 L 78.68954729179362 0.5 L 78.68954729179362 3.5 L 85.68954729179362 0 L 78.68954729179362 -3.5 L 78.68954729179362 -0.5 L 68.18657052089681 -0.5 Z"/><text text-anchor="middle" pointer-events="none" font-size="8px" fill="#000000" x="51.84477364589681" y="3" transform="rotate(180 51.84477364589681 0)" font-family="Helvetica Neue, Helvetica, Arial, sans-serif">created</text></g><g class="relationship" transform="translate(-171.2725685119836 258.57762558578014) rotate(281.8495525943305)"><path class="b-outline" fill="#A5ABB6" stroke="none" d="M 25 0.5 L 131.838089671031 0.5 L 131.838089671031 -0.5 L 25 -0.5 Z M 164.521683421031 0.5 L 271.359773092062 0.5 L 271.359773092062 3.5 L 278.359773092062 0 L 271.359773092062 -3.5 L 271.359773092062 -0.5 L 164.521683421031 -0.5 Z"/><text text-anchor="middle" pointer-events="none" font-size="8px" fill="#000000" x="148.179886546031" y="3" font-family="Helvetica Neue, Helvetica, Arial, sans-serif">created</text></g><g class="relationship" transform="translate(-363.17532216189113 212.93029351867543) rotate(315.33412085303775)"><path class="b-outline" fill="#A5ABB6" stroke="none" d="M 25 0.5 L 158.86244054505948 0.5 L 158.86244054505948 -0.5 L 25 -0.5 Z M 191.54603429505948 0.5 L 325.40847484011897 0.5 L 325.40847484011897 3.5 L 332.40847484011897 0 L 325.40847484011897 -3.5 L 325.40847484011897 -0.5 L 191.54603429505948 -0.5 Z"/><text text-anchor="middle" pointer-events="none" font-size="8px" fill="#000000" x="175.20423742005948" y="3" font-family="Helvetica Neue, Helvetica, Arial, sans-serif">created</text></g><g class="relationship" transform="translate(-337.3274855796049 9.050679899796517) rotate(348.28080943103555)"><path class="b-outline" fill="#A5ABB6" stroke="none" d="M 25 0.5 L 96.76263573845885 0.5 L 96.76263573845885 -0.5 L 25 -0.5 Z M 129.44622948845887 0.5 L 201.2088652269177 0.5 L 201.2088652269177 3.5 L 208.2088652269177 0 L 201.2088652269177 -3.5 L 201.2088652269177 -0.5 L 129.44622948845887 -0.5 Z"/><text text-anchor="middle" pointer-events="none" font-size="8px" fill="#000000" x="113.10443261345885" y="3" font-family="Helvetica Neue, Helvetica, Arial, sans-serif">created</text></g><g class="relationship" transform="translate(174.7484435311352 82.97562454616268) rotate(203.14659837516507)"><path class="b-outline" fill="#A5ABB6" stroke="none" d="M 25 0.5 L 134.44188504608744 0.5 L 134.44188504608744 -0.5 L 25 -0.5 Z M 167.12547879608744 0.5 L 276.56736384217487 0.5 L 276.56736384217487 3.5 L 283.56736384217487 0 L 276.56736384217487 -3.5 L 276.56736384217487 -0.5 L 167.12547879608744 -0.5 Z"/><text text-anchor="middle" pointer-events="none" font-size="8px" fill="#000000" x="150.78368192108744" y="3" transform="rotate(180 150.78368192108744 0)" font-family="Helvetica Neue, Helvetica, Arial, sans-serif">created</text></g><g class="relationship" transform="translate(87.0948890366891 130.40461940864515) rotate(220.71197249063232)"><path class="b-outline" fill="#A5ABB6" stroke="none" d="M 25 0.5 L 109.49546517107385 0.5 L 109.49546517107385 -0.5 L 25 -0.5 Z M 142.17905892107385 0.5 L 226.6745240921477 0.5 L 226.6745240921477 3.5 L 233.6745240921477 0 L 226.6745240921477 -3.5 L 226.6745240921477 -0.5 L 142.17905892107385 -0.5 Z"/><text text-anchor="middle" pointer-events="none" font-size="8px" fill="#000000" x="125.83726204607385" y="3" transform="rotate(180 125.83726204607385 0)" font-family="Helvetica Neue, Helvetica, Arial, sans-serif">created</text></g><g class="relationship" transform="translate(61.59695699476476 226.26694955545014) rotate(237.19024736494532)"><path class="b-outline" fill="#A5ABB6" stroke="none" d="M 25 0.5 L 137.56011492776128 0.5 L 137.56011492776128 -0.5 L 25 -0.5 Z M 170.24370867776128 0.5 L 282.80382360552255 0.5 L 282.80382360552255 3.5 L 289.80382360552255 0 L 282.80382360552255 -3.5 L 282.80382360552255 -0.5 L 170.24370867776128 -0.5 Z"/><text text-anchor="middle" pointer-events="none" font-size="8px" fill="#000000" x="153.90191180276128" y="3" transform="rotate(180 153.90191180276128 0)" font-family="Helvetica Neue, Helvetica, Arial, sans-serif">created</text></g><g class="relationship" transform="translate(-201.51739739152168 148.5410425784009) rotate(296.3458689790375)"><path class="b-outline" fill="#A5ABB6" stroke="none" d="M 25 0.5 L 84.41670544307497 0.5 L 84.41670544307497 -0.5 L 25 -0.5 Z M 117.10029919307497 0.5 L 176.51700463614995 0.5 L 176.51700463614995 3.5 L 183.51700463614995 0 L 176.51700463614995 -3.5 L 176.51700463614995 -0.5 L 117.10029919307497 -0.5 Z"/><text text-anchor="middle" pointer-events="none" font-size="8px" fill="#000000" x="100.75850231807497" y="3" font-family="Helvetica Neue, Helvetica, Arial, sans-serif">created</text></g><g class="relationship" transform="translate(-76.0298801472505 229.6399887335954) rotate(262.98968631339307)"><path class="b-outline" fill="#A5ABB6" stroke="none" d="M 25 0.5 L 115.1461406741931 0.5 L 115.1461406741931 -0.5 L 25 -0.5 Z M 147.8297344241931 0.5 L 237.9758750983862 0.5 L 237.9758750983862 3.5 L 244.9758750983862 0 L 237.9758750983862 -3.5 L 237.9758750983862 -0.5 L 147.8297344241931 -0.5 Z"/><text text-anchor="middle" pointer-events="none" font-size="8px" fill="#000000" x="131.4879375491931" y="3" transform="rotate(180 131.4879375491931 0)" font-family="Helvetica Neue, Helvetica, Arial, sans-serif">created</text></g><g class="relationship" transform="translate(-102.15254221093997 -337.7154400220507) rotate(451.30632497228413)"><path class="b-outline" fill="#A5ABB6" stroke="none" d="M 25 0.5 L 129.8960400820825 0.5 L 129.8960400820825 -0.5 L 25 -0.5 Z M 162.5796338320825 0.5 L 267.475673914165 0.5 L 267.475673914165 3.5 L 274.475673914165 0 L 267.475673914165 -3.5 L 267.475673914165 -0.5 L 162.5796338320825 -0.5 Z"/><text text-anchor="middle" pointer-events="none" font-size="8px" fill="#000000" x="146.2378369570825" y="3" transform="rotate(180 146.2378369570825 0)" font-family="Helvetica Neue, Helvetica, Arial, sans-serif">created</text></g><g class="relationship" transform="translate(109.85908877100147 -256.0496910044026) rotate(495.14526917163096)"><path class="b-outline" fill="#A5ABB6" stroke="none" d="M 25 0.5 L 134.509883865515 0.5 L 134.509883865515 -0.5 L 25 -0.5 Z M 167.193477615515 0.5 L 276.70336148103 0.5 L 276.70336148103 3.5 L 283.70336148103 0 L 276.70336148103 -3.5 L 276.70336148103 -0.5 L 167.193477615515 -0.5 Z"/><text text-anchor="middle" pointer-events="none" font-size="8px" fill="#000000" x="150.851680740515" y="3" transform="rotate(180 150.851680740515 0)" font-family="Helvetica Neue, Helvetica, Arial, sans-serif">created</text></g><g class="relationship" transform="translate(14.181205514573646 -229.78429778875892) rotate(482.7511821755735)"><path class="b-outline" fill="#A5ABB6" stroke="none" d="M 25 0.5 L 93.98719069221124 0.5 L 93.98719069221124 -0.5 L 25 -0.5 Z M 126.67078444221124 0.5 L 195.6579751344225 0.5 L 195.6579751344225 3.5 L 202.6579751344225 0 L 195.6579751344225 -3.5 L 195.6579751344225 -0.5 L 126.67078444221124 -0.5 Z"/><text text-anchor="middle" pointer-events="none" font-size="8px" fill="#000000" x="110.32898756721124" y="3" transform="rotate(180 110.32898756721124 0)" font-family="Helvetica Neue, Helvetica, Arial, sans-serif">created</text></g><g class="relationship" transform="translate(56.196566416388144 36.10184432158933) rotate(204.25371192972943)"><path class="b-outline" fill="#A5ABB6" stroke="none" d="M 25 0.5 L 70.74175301831926 0.5 L 70.74175301831926 -0.5 L 25 -0.5 Z M 103.42534676831926 0.5 L 149.16709978663852 0.5 L 149.16709978663852 3.5 L 156.16709978663852 0 L 149.16709978663852 -3.5 L 149.16709978663852 -0.5 L 103.42534676831926 -0.5 Z"/><text text-anchor="middle" pointer-events="none" font-size="8px" fill="#000000" x="87.08354989331926" y="3" transform="rotate(180 87.08354989331926 0)" font-family="Helvetica Neue, Helvetica, Arial, sans-serif">created</text></g><g class="relationship" transform="translate(-37.545070799112644 62.390810894313475) rotate(234.6510322788248)"><path class="b-outline" fill="#A5ABB6" stroke="none" d="M 25 0.5 L 41.893765347522816 0.5 L 41.893765347522816 -0.5 L 25 -0.5 Z M 74.57735909752282 0.5 L 91.47112444504563 0.5 L 91.47112444504563 3.5 L 98.47112444504563 0 L 91.47112444504563 -3.5 L 91.47112444504563 -0.5 L 74.57735909752282 -0.5 Z"/><text text-anchor="middle" pointer-events="none" font-size="8px" fill="#000000" x="58.235562222522816" y="3" transform="rotate(180 58.235562222522816 0)" font-family="Helvetica Neue, Helvetica, Arial, sans-serif">created</text></g><g class="relationship" transform="translate(-387.8644153729426 -149.55152764949761) rotate(381.74473358277237)"><path class="b-outline" fill="#A5ABB6" stroke="none" d="M 25 0.5 L 130.28278536672258 0.5 L 130.28278536672258 -0.5 L 25 -0.5 Z M 162.96637911672258 0.5 L 268.24916448344516 0.5 L 268.24916448344516 3.5 L 275.24916448344516 0 L 268.24916448344516 -3.5 L 268.24916448344516 -0.5 L 162.96637911672258 -0.5 Z"/><text text-anchor="middle" pointer-events="none" font-size="8px" fill="#000000" x="146.62458224172258" y="3" font-family="Helvetica Neue, Helvetica, Arial, sans-serif">created</text></g><g class="relationship" transform="translate(-217.494477989139 -120.19713533646853) rotate(397.03633132351456)"><path class="b-outline" fill="#A5ABB6" stroke="none" d="M 25 0.5 L 48.128182514331286 0.5 L 48.128182514331286 -0.5 L 25 -0.5 Z M 80.81177626433129 0.5 L 103.93995877866257 0.5 L 103.93995877866257 3.5 L 110.93995877866257 0 L 103.93995877866257 -3.5 L 103.93995877866257 -0.5 L 80.81177626433129 -0.5 Z"/><text text-anchor="middle" pointer-events="none" font-size="8px" fill="#000000" x="64.46997938933129" y="3" font-family="Helvetica Neue, Helvetica, Arial, sans-serif">created</text></g><g class="relationship" transform="translate(-295.29477624638463 -184.80006818420185) rotate(398.17475441640926)"><path class="b-outline" fill="#A5ABB6" stroke="none" d="M 25 0.5 L 98.65962438819699 0.5 L 98.65962438819699 -0.5 L 25 -0.5 Z M 131.343218138197 0.5 L 205.00284252639398 0.5 L 205.00284252639398 3.5 L 212.00284252639398 0 L 205.00284252639398 -3.5 L 205.00284252639398 -0.5 L 131.343218138197 -0.5 Z"/><text text-anchor="middle" pointer-events="none" font-size="8px" fill="#000000" x="115.00142126319699" y="3" font-family="Helvetica Neue, Helvetica, Arial, sans-serif">created</text></g><g class="relationship" transform="translate(41.64130464302425 -134.68340270113924) rotate(507.38933044877655)"><path class="b-outline" fill="#A5ABB6" stroke="none" d="M 25 0.5 L 69.56334070782832 0.5 L 69.56334070782832 -0.5 L 25 -0.5 Z M 102.24693445782832 0.5 L 146.81027516565663 0.5 L 146.81027516565663 3.5 L 153.81027516565663 0 L 146.81027516565663 -3.5 L 146.81027516565663 -0.5 L 102.24693445782832 -0.5 Z"/><text text-anchor="middle" pointer-events="none" font-size="8px" fill="#000000" x="85.90513758282832" y="3" transform="rotate(180 85.90513758282832 0)" font-family="Helvetica Neue, Helvetica, Arial, sans-serif">created</text></g><g class="relationship" transform="translate(-104.02123326100183 134.52773463911882) rotate(268.35672369522604)"><path class="b-outline" fill="#A5ABB6" stroke="none" d="M 25 0.5 L 66.61642733438204 0.5 L 66.61642733438204 -0.5 L 25 -0.5 Z M 99.30002108438204 0.5 L 140.91644841876408 0.5 L 140.91644841876408 3.5 L 147.91644841876408 0 L 140.91644841876408 -3.5 L 140.91644841876408 -0.5 L 99.30002108438204 -0.5 Z"/><text text-anchor="middle" pointer-events="none" font-size="8px" fill="#000000" x="82.95822420938204" y="3" transform="rotate(180 82.95822420938204 0)" font-family="Helvetica Neue, Helvetica, Arial, sans-serif">created</text></g><g class="relationship" transform="translate(-276.7546666508734 -284.63770100014824) rotate(415.74024578257325)"><path class="b-outline" fill="#A5ABB6" stroke="none" d="M 25 0.5 L 129.173273777062 0.5 L 129.173273777062 -0.5 L 25 -0.5 Z M 161.856867527062 0.5 L 266.030141304124 0.5 L 266.030141304124 3.5 L 273.030141304124 0 L 266.030141304124 -3.5 L 266.030141304124 -0.5 L 161.856867527062 -0.5 Z"/><text text-anchor="middle" pointer-events="none" font-size="8px" fill="#000000" x="145.515070652062" y="3" font-family="Helvetica Neue, Helvetica, Arial, sans-serif">created</text></g><g class="relationship" transform="translate(98.42436780626065 -53.52724726248154) rotate(535.8058169622221)"><path class="b-outline" fill="#A5ABB6" stroke="none" d="M 25 0.5 L 84.13880557273053 0.5 L 84.13880557273053 -0.5 L 25 -0.5 Z M 116.82239932273053 0.5 L 175.96120489546107 0.5 L 175.96120489546107 3.5 L 182.96120489546107 0 L 175.96120489546107 -3.5 L 175.96120489546107 -0.5 L 116.82239932273053 -0.5 Z"/><text text-anchor="middle" pointer-events="none" font-size="8px" fill="#000000" x="100.48060244773053" y="3" transform="rotate(180 100.48060244773053 0)" font-family="Helvetica Neue, Helvetica, Arial, sans-serif">created</text></g><g class="relationship" transform="translate(-166.21622027311773 58.026554813629105) rotate(300.7137820173701)"><path class="b-outline" fill="#A5ABB6" stroke="none" d="M 25 0.5 L 36.18987457455117 0.5 L 36.18987457455117 -0.5 L 25 -0.5 Z M 68.87346832455117 0.5 L 80.06334289910234 0.5 L 80.06334289910234 3.5 L 87.06334289910234 0 L 80.06334289910234 -3.5 L 80.06334289910234 -0.5 L 68.87346832455117 -0.5 Z"/><text text-anchor="middle" pointer-events="none" font-size="8px" fill="#000000" x="52.53167144955117" y="3" font-family="Helvetica Neue, Helvetica, Arial, sans-serif">created</text></g><g class="relationship" transform="translate(-237.0596026721419 -21.89815820826303) rotate(352.6946950942445)"><path class="b-outline" fill="#A5ABB6" stroke="none" d="M 25 0.5 L 44.72214213935493 0.5 L 44.72214213935493 -0.5 L 25 -0.5 Z M 77.40573588935493 0.5 L 97.12787802870986 0.5 L 97.12787802870986 3.5 L 104.12787802870986 0 L 97.12787802870986 -3.5 L 97.12787802870986 -0.5 L 77.40573588935493 -0.5 Z"/><text text-anchor="middle" pointer-events="none" font-size="8px" fill="#000000" x="61.06393901435493" y="3" font-family="Helvetica Neue, Helvetica, Arial, sans-serif">created</text></g><g class="relationship" transform="translate(-202.17636046822824 -217.43362431613798) rotate(422.5114368715748)"><path class="b-outline" fill="#A5ABB6" stroke="none" d="M 25 0.5 L 81.11380072923708 0.5 L 81.11380072923708 -0.5 L 25 -0.5 Z M 113.79739447923708 0.5 L 169.91119520847417 0.5 L 169.91119520847417 3.5 L 176.91119520847417 0 L 169.91119520847417 -3.5 L 169.91119520847417 -0.5 L 113.79739447923708 -0.5 Z"/><text text-anchor="middle" pointer-events="none" font-size="8px" fill="#000000" x="97.45559760423708" y="3" font-family="Helvetica Neue, Helvetica, Arial, sans-serif">created</text></g><g class="relationship" transform="translate(-310.3858892407821 -87.1023778935262) rotate(373.61600036820596)"><path class="b-outline" fill="#A5ABB6" stroke="none" d="M 25 0.5 L 83.77326951822432 0.5 L 83.77326951822432 -0.5 L 25 -0.5 Z M 116.45686326822432 0.5 L 175.23013278644865 0.5 L 175.23013278644865 3.5 L 182.23013278644865 0 L 175.23013278644865 -3.5 L 175.23013278644865 -0.5 L 116.45686326822432 -0.5 Z"/><text text-anchor="middle" pointer-events="none" font-size="8px" fill="#000000" x="100.11506639322432" y="3" font-family="Helvetica Neue, Helvetica, Arial, sans-serif">created</text></g><g class="relationship" transform="translate(-429.698715375663 -29.686862672719172) rotate(358.45850792174826)"><path class="b-outline" fill="#A5ABB6" stroke="none" d="M 24.018736134675446,-6.953439040707552 L 24.277555179777966,-5.987513214418485 A 523.6017023386945 523.6017023386945 0 0 1 140.57807046627454,-23.476021585322997 L 140.54136780232017,-24.47534781556942 A 524.6017023386945 524.6017023386945 0 0 0 24.018736134675446,-6.953439040707552 Z M 173.2503411523661,-24.656240937576626 L 173.22469370726776,-23.65656988740068 A 523.6017023386945 523.6017023386945 0 0 1 289.7115254319557,-7.455464502642446 L 288.9671664446269,-4.54927632945358 L 296.61669100061783,-6.202991561073386 L 290.7040040817274,-11.330382066894268 L 289.95964509439864,-8.424193893705402 A 524.6017023386945 524.6017023386945 0 0 0 173.2503411523661,-24.656240937576626"/><text text-anchor="middle" pointer-events="none" font-size="8px" fill="#000000" x="156.89720942359938" y="-21.320793900633475" font-family="Helvetica Neue, Helvetica, Arial, sans-serif">created</text></g><g class="relationship" transform="translate(40.41812199811679 -325.29060300378615) rotate(477.5014656174932)"><path class="b-outline" fill="#A5ABB6" stroke="none" d="M 24.018736134675446,-6.953439040707552 L 24.277555179777966,-5.987513214418485 A 528.8330296557307 528.8330296557307 0 0 1 141.92675639723706,-23.657574831826537 L 141.8904068172019,-24.656913967471382 A 529.8330296557307 529.8330296557307 0 0 0 24.018736134675446,-6.953439040707552 Z M 174.5991844537829,-24.83632863212904 L 174.5737999104135,-23.83665087156919 A 528.8330296557307 528.8330296557307 0 0 1 292.40976410925657,-7.458275921710733 L 291.6651426021955,-4.552155000065854 L 299.31481651093816,-6.2051792255090215 L 293.402592785338,-11.33310381723724 L 292.65797127827693,-8.42698289559236 A 529.8330296557307 529.8330296557307 0 0 0 174.5991844537829,-24.83632863212904"/><text text-anchor="middle" pointer-events="none" font-size="8px" fill="#000000" x="158.24615334987362" y="-21.49909873594595" transform="rotate(180 158.24615334987362 -24.49909873594595)" font-family="Helvetica Neue, Helvetica, Arial, sans-serif">created</text></g><g class="relationship" transform="translate(-105.844232100093 -238.29514079295822) rotate(450.8983293137677)"><path class="b-outline" fill="#A5ABB6" stroke="none" d="M 24.018736134675446,-6.953439040707552 L 24.277555179777966,-5.987513214418485 A 288.71915817503304 288.71915817503304 0 0 1 80.17361010130737,-15.210690397133874 L 80.10839114590739,-16.208561374693886 A 289.71915817503304 289.71915817503304 0 0 0 24.018736134675446,-6.953439040707552 Z M 112.82981366416175,-16.495277654921153 L 112.78209075294727,-15.496417042150199 A 288.71915817503304 288.71915817503304 0 0 1 168.8311839367957,-7.2541414824115 L 168.10562475627518,-4.343202823565806 L 175.74430067085575,-6.046326504337864 L 169.79859617748974,-11.135393027539092 L 169.07303699696922,-8.224454368693397 A 289.71915817503304 289.71915817503304 0 0 0 112.82981366416175,-16.495277654921153"/><text text-anchor="middle" pointer-events="none" font-size="8px" fill="#000000" x="96.46943223566747" y="-13.314277677762732" transform="rotate(180 96.46943223566747 -16.314277677762732)" font-family="Helvetica Neue, Helvetica, Arial, sans-serif">created</text></g><g class="relationship" transform="translate(-108.97989776751187 -38.317600212797196) rotate(504.2201543825601)"><path class="b-outline" fill="#A5ABB6" stroke="none" d="M 25 0.5 L 75.06596323045918 0.5 L 75.06596323045918 -0.5 L 25 -0.5 Z M 107.74955698045918 0.5 L 157.81552021091835 0.5 L 157.81552021091835 3.5 L 164.81552021091835 0 L 157.81552021091835 -3.5 L 157.81552021091835 -0.5 L 107.74955698045918 -0.5 Z"/><text text-anchor="middle" pointer-events="none" font-size="8px" fill="#000000" x="91.40776010545918" y="3" transform="rotate(180 91.40776010545918 0)" font-family="Helvetica Neue, Helvetica, Arial, sans-serif">created</text></g><g class="relationship" transform="translate(28.177175385301883 633.9341951643356) rotate(252.02046409705963)"><path class="b-outline" fill="#A5ABB6" stroke="none" d="M 25 0.5 L 68.02509323249984 0.5 L 68.02509323249984 -0.5 L 25 -0.5 Z M 93.59540573249984 0.5 L 136.62049896499968 0.5 L 136.62049896499968 3.5 L 143.62049896499968 0 L 136.62049896499968 -3.5 L 136.62049896499968 -0.5 L 93.59540573249984 -0.5 Z"/><text text-anchor="middle" pointer-events="none" font-size="8px" fill="#000000" x="80.81024948249984" y="3" transform="rotate(180 80.81024948249984 0)" font-family="Helvetica Neue, Helvetica, Arial, sans-serif">voted</text></g><g class="relationship" transform="translate(-76.0298801472505 229.6399887335954) rotate(437.92955952604535)"><path class="b-outline" fill="#A5ABB6" stroke="none" d="M 25 0.5 L 103.98073065449968 0.5 L 103.98073065449968 -0.5 L 25 -0.5 Z M 138.44166815449967 0.5 L 217.42239880899936 0.5 L 217.42239880899936 3.5 L 224.42239880899936 0 L 217.42239880899936 -3.5 L 217.42239880899936 -0.5 L 138.44166815449967 -0.5 Z"/><text text-anchor="middle" pointer-events="none" font-size="8px" fill="#000000" x="121.21119940449968" y="3" font-family="Helvetica Neue, Helvetica, Arial, sans-serif">reply_to</text></g><g class="relationship" transform="translate(-108.97989776751187 -38.317600212797196) rotate(422.7452351297095)"><path class="b-outline" fill="#A5ABB6" stroke="none" d="M 25 0.5 L 89.90947886159287 0.5 L 89.90947886159287 -0.5 L 25 -0.5 Z M 122.59307261159287 0.5 L 187.50255147318575 0.5 L 187.50255147318575 3.5 L 194.50255147318575 0 L 187.50255147318575 -3.5 L 187.50255147318575 -0.5 L 122.59307261159287 -0.5 Z"/><text text-anchor="middle" pointer-events="none" font-size="8px" fill="#000000" x="106.25127573659287" y="3" font-family="Helvetica Neue, Helvetica, Arial, sans-serif">created</text></g><g class="relationship" transform="translate(-8.459177002177894 156.81557174947147) rotate(431.8098902850076)"><path class="b-outline" fill="#A5ABB6" stroke="none" d="M 25 0.5 L 67.9262185392618 0.5 L 67.9262185392618 -0.5 L 25 -0.5 Z M 102.3871560392618 0.5 L 145.3133745785236 0.5 L 145.3133745785236 3.5 L 152.3133745785236 0 L 145.3133745785236 -3.5 L 145.3133745785236 -0.5 L 102.3871560392618 -0.5 Z"/><text text-anchor="middle" pointer-events="none" font-size="8px" fill="#000000" x="85.1566872892618" y="3" font-family="Helvetica Neue, Helvetica, Arial, sans-serif">reply_to</text></g><g class="relationship" transform="translate(-108.97989776751187 -38.317600212797196) rotate(295.1837414301242)"><path class="b-outline" fill="#A5ABB6" stroke="none" d="M 25 0.5 L 45.13171034193091 0.5 L 45.13171034193091 -0.5 L 25 -0.5 Z M 77.81530409193091 0.5 L 97.94701443386182 0.5 L 97.94701443386182 3.5 L 104.94701443386182 0 L 97.94701443386182 -3.5 L 97.94701443386182 -0.5 L 77.81530409193091 -0.5 Z"/><text text-anchor="middle" pointer-events="none" font-size="8px" fill="#000000" x="61.47350721693091" y="3" font-family="Helvetica Neue, Helvetica, Arial, sans-serif">created</text></g><g class="relationship" transform="translate(234.32945089478196 636.8530371883182) rotate(256.9351296898957)"><path class="b-outline" fill="#A5ABB6" stroke="none" d="M 25 0.5 L 66.36663665146163 0.5 L 66.36663665146163 -0.5 L 25 -0.5 Z M 91.93694915146163 0.5 L 133.30358580292327 0.5 L 133.30358580292327 3.5 L 140.30358580292327 0 L 133.30358580292327 -3.5 L 133.30358580292327 -0.5 L 91.93694915146163 -0.5 Z"/><text text-anchor="middle" pointer-events="none" font-size="8px" fill="#000000" x="79.15179290146163" y="3" transform="rotate(180 79.15179290146163 0)" font-family="Helvetica Neue, Helvetica, Arial, sans-serif">voted</text></g><g class="relationship" transform="translate(320.63025553907977 587.2363365318304) rotate(222.01444595808704)"><path class="b-outline" fill="#A5ABB6" stroke="none" d="M 25 0.5 L 66.9398341797074 0.5 L 66.9398341797074 -0.5 L 25 -0.5 Z M 92.5101466797074 0.5 L 134.4499808594148 0.5 L 134.4499808594148 3.5 L 141.4499808594148 0 L 134.4499808594148 -3.5 L 134.4499808594148 -0.5 L 92.5101466797074 -0.5 Z"/><text text-anchor="middle" pointer-events="none" font-size="8px" fill="#000000" x="79.7249904297074" y="3" transform="rotate(180 79.7249904297074 0)" font-family="Helvetica Neue, Helvetica, Arial, sans-serif">voted</text></g><g class="relationship" transform="translate(61.59695699476476 226.26694955545014) rotate(421.5240947973135)"><path class="b-outline" fill="#A5ABB6" stroke="none" d="M 25 0.5 L 121.22425380286421 0.5 L 121.22425380286421 -0.5 L 25 -0.5 Z M 155.6851913028642 0.5 L 251.90944510572842 0.5 L 251.90944510572842 3.5 L 258.9094451057284 0 L 251.90944510572842 -3.5 L 251.90944510572842 -0.5 L 155.6851913028642 -0.5 Z"/><text text-anchor="middle" pointer-events="none" font-size="8px" fill="#000000" x="138.4547225528642" y="3" font-family="Helvetica Neue, Helvetica, Arial, sans-serif">reply_to</text></g><g class="relationship" transform="translate(373.02581691712686 428.7085341718451) rotate(229.00914464949358)"><path class="b-outline" fill="#A5ABB6" stroke="none" d="M 25 0.5 L 67.85821792430552 0.5 L 67.85821792430552 -0.5 L 25 -0.5 Z M 93.42853042430552 0.5 L 136.28674834861104 0.5 L 136.28674834861104 3.5 L 143.28674834861104 0 L 136.28674834861104 -3.5 L 136.28674834861104 -0.5 L 93.42853042430552 -0.5 Z"/><text text-anchor="middle" pointer-events="none" font-size="8px" fill="#000000" x="80.64337417430552" y="3" transform="rotate(180 80.64337417430552 0)" font-family="Helvetica Neue, Helvetica, Arial, sans-serif">voted</text></g><g class="relationship" transform="translate(87.0948890366891 130.40461940864515) rotate(404.295206193409)"><path class="b-outline" fill="#A5ABB6" stroke="none" d="M 25 0.5 L 101.89955119668973 0.5 L 101.89955119668973 -0.5 L 25 -0.5 Z M 136.36048869668974 0.5 L 213.26003989337946 0.5 L 213.26003989337946 3.5 L 220.26003989337946 0 L 213.26003989337946 -3.5 L 213.26003989337946 -0.5 L 136.36048869668974 -0.5 Z"/><text text-anchor="middle" pointer-events="none" font-size="8px" fill="#000000" x="119.13001994668973" y="3" font-family="Helvetica Neue, Helvetica, Arial, sans-serif">reply_to</text></g><g class="relationship" transform="translate(493.4853361522217 380.2823875974908) rotate(247.47741558030253)"><path class="b-outline" fill="#A5ABB6" stroke="none" d="M 25 0.5 L 65.48697198250899 0.5 L 65.48697198250899 -0.5 L 25 -0.5 Z M 91.05728448250899 0.5 L 131.54425646501798 0.5 L 131.54425646501798 3.5 L 138.54425646501798 0 L 131.54425646501798 -3.5 L 131.54425646501798 -0.5 L 91.05728448250899 -0.5 Z"/><text text-anchor="middle" pointer-events="none" font-size="8px" fill="#000000" x="78.27212823250899" y="3" transform="rotate(180 78.27212823250899 0)" font-family="Helvetica Neue, Helvetica, Arial, sans-serif">voted</text></g><g class="relationship" transform="translate(574.5859507754601 323.03116992510894) rotate(213.13147261491827)"><path class="b-outline" fill="#A5ABB6" stroke="none" d="M 25 0.5 L 69.54159872168806 0.5 L 69.54159872168806 -0.5 L 25 -0.5 Z M 95.11191122168806 0.5 L 139.65350994337612 0.5 L 139.65350994337612 3.5 L 146.65350994337612 0 L 139.65350994337612 -3.5 L 139.65350994337612 -0.5 L 95.11191122168806 -0.5 Z"/><text text-anchor="middle" pointer-events="none" font-size="8px" fill="#000000" x="82.32675497168806" y="3" transform="rotate(180 82.32675497168806 0)" font-family="Helvetica Neue, Helvetica, Arial, sans-serif">voted</text></g><g class="relationship" transform="translate(593.2577751290694 225.3236286689283) rotate(538.6286115648834)"><path class="b-outline" fill="#A5ABB6" stroke="none" d="M 25 0.5 L 64.94694595139106 0.5 L 64.94694595139106 -0.5 L 25 -0.5 Z M 90.51725845139106 0.5 L 130.46420440278212 0.5 L 130.46420440278212 3.5 L 137.46420440278212 0 L 130.46420440278212 -3.5 L 130.46420440278212 -0.5 L 90.51725845139106 -0.5 Z"/><text text-anchor="middle" pointer-events="none" font-size="8px" fill="#000000" x="77.73210220139106" y="3" transform="rotate(180 77.73210220139106 0)" font-family="Helvetica Neue, Helvetica, Arial, sans-serif">voted</text></g><g class="relationship" transform="translate(174.7484435311352 82.97562454616268) rotate(389.72770215190707)"><path class="b-outline" fill="#A5ABB6" stroke="none" d="M 25 0.5 L 126.7212024321081 0.5 L 126.7212024321081 -0.5 L 25 -0.5 Z M 161.1821399321081 0.5 L 262.9033423642162 0.5 L 262.9033423642162 3.5 L 269.9033423642162 0 L 262.9033423642162 -3.5 L 262.9033423642162 -0.5 L 161.1821399321081 -0.5 Z"/><text text-anchor="middle" pointer-events="none" font-size="8px" fill="#000000" x="143.9516711821081" y="3" font-family="Helvetica Neue, Helvetica, Arial, sans-serif">reply_to</text></g><g class="relationship" transform="translate(-108.97989776751187 -38.317600212797196) rotate(360.036225640824)"><path class="b-outline" fill="#A5ABB6" stroke="none" d="M 25 0.5 L 141.6651655937469 0.5 L 141.6651655937469 -0.5 L 25 -0.5 Z M 174.3487593437469 0.5 L 291.0139249374938 0.5 L 291.0139249374938 3.5 L 298.0139249374938 0 L 291.0139249374938 -3.5 L 291.0139249374938 -0.5 L 174.3487593437469 -0.5 Z"/><text text-anchor="middle" pointer-events="none" font-size="8px" fill="#000000" x="158.0069624687469" y="3" font-family="Helvetica Neue, Helvetica, Arial, sans-serif">created</text></g><g class="relationship" transform="translate(553.3526412954411 -169.52482445891278) rotate(464.6981896263723)"><path class="b-outline" fill="#A5ABB6" stroke="none" d="M 25 0.5 L 58.79818578632275 0.5 L 58.79818578632275 -0.5 L 25 -0.5 Z M 84.36849828632275 0.5 L 118.1666840726455 0.5 L 118.1666840726455 3.5 L 125.1666840726455 0 L 118.1666840726455 -3.5 L 118.1666840726455 -0.5 L 84.36849828632275 -0.5 Z"/><text text-anchor="middle" pointer-events="none" font-size="8px" fill="#000000" x="71.58334203632275" y="3" transform="rotate(180 71.58334203632275 0)" font-family="Helvetica Neue, Helvetica, Arial, sans-serif">voted</text></g><g class="relationship" transform="translate(663.9795481248959 59.95911028293147) rotate(209.52477356759437)"><path class="b-outline" fill="#A5ABB6" stroke="none" d="M 25 0.5 L 69.17686414264078 0.5 L 69.17686414264078 -0.5 L 25 -0.5 Z M 94.74717664264078 0.5 L 138.92404078528156 0.5 L 138.92404078528156 3.5 L 145.92404078528156 0 L 138.92404078528156 -3.5 L 138.92404078528156 -0.5 L 94.74717664264078 -0.5 Z"/><text text-anchor="middle" pointer-events="none" font-size="8px" fill="#000000" x="81.96202039264078" y="3" transform="rotate(180 81.96202039264078 0)" font-family="Helvetica Neue, Helvetica, Arial, sans-serif">voted</text></g><g class="relationship" transform="translate(580.8376675447814 113.81578295067688) rotate(244.594103283871)"><path class="b-outline" fill="#A5ABB6" stroke="none" d="M 25 0.5 L 60.150892871699554 0.5 L 60.150892871699554 -0.5 L 25 -0.5 Z M 85.72120537169955 0.5 L 120.87209824339911 0.5 L 120.87209824339911 3.5 L 127.87209824339911 0 L 120.87209824339911 -3.5 L 120.87209824339911 -0.5 L 85.72120537169955 -0.5 Z"/><text text-anchor="middle" pointer-events="none" font-size="8px" fill="#000000" x="72.93604912169955" y="3" transform="rotate(180 72.93604912169955 0)" font-family="Helvetica Neue, Helvetica, Arial, sans-serif">voted</text></g><g class="relationship" transform="translate(642.2574522836119 -125.49296419008276) rotate(501.44604158081495)"><path class="b-outline" fill="#A5ABB6" stroke="none" d="M 25 0.5 L 64.9186223896388 0.5 L 64.9186223896388 -0.5 L 25 -0.5 Z M 90.4889348896388 0.5 L 130.4075572792776 0.5 L 130.4075572792776 3.5 L 137.4075572792776 0 L 130.4075572792776 -3.5 L 130.4075572792776 -0.5 L 90.4889348896388 -0.5 Z"/><text text-anchor="middle" pointer-events="none" font-size="8px" fill="#000000" x="77.7037786396388" y="3" transform="rotate(180 77.7037786396388 0)" font-family="Helvetica Neue, Helvetica, Arial, sans-serif">voted</text></g><g class="relationship" transform="translate(686.1350874899364 -36.25708217681638) rotate(535.988158544443)"><path class="b-outline" fill="#A5ABB6" stroke="none" d="M 25 0.5 L 69.36664676434059 0.5 L 69.36664676434059 -0.5 L 25 -0.5 Z M 94.93695926434059 0.5 L 139.30360602868117 0.5 L 139.30360602868117 3.5 L 146.30360602868117 0 L 139.30360602868117 -3.5 L 139.30360602868117 -0.5 L 94.93695926434059 -0.5 Z"/><text text-anchor="middle" pointer-events="none" font-size="8px" fill="#000000" x="82.15180301434059" y="3" transform="rotate(180 82.15180301434059 0)" font-family="Helvetica Neue, Helvetica, Arial, sans-serif">voted</text></g><g class="relationship" transform="translate(214.03396260781125 -38.113372506223065) rotate(362.63093017295483)"><path class="b-outline" fill="#A5ABB6" stroke="none" d="M 25 0.5 L 130.03708949734008 0.5 L 130.03708949734008 -0.5 L 25 -0.5 Z M 164.49802699734008 0.5 L 269.53511649468015 0.5 L 269.53511649468015 3.5 L 276.53511649468015 0 L 269.53511649468015 -3.5 L 269.53511649468015 -0.5 L 164.49802699734008 -0.5 Z"/><text text-anchor="middle" pointer-events="none" font-size="8px" fill="#000000" x="147.26755824734008" y="3" font-family="Helvetica Neue, Helvetica, Arial, sans-serif">reply_to</text></g><g class="relationship" transform="translate(725.6233866891716 -536.9025908464291) rotate(524.5868589533135)"><path class="b-outline" fill="#A5ABB6" stroke="none" d="M 25 0.5 L 46.15522216902238 0.5 L 46.15522216902238 -0.5 L 25 -0.5 Z M 78.83881591902238 0.5 L 99.99403808804476 0.5 L 99.99403808804476 3.5 L 106.99403808804476 0 L 99.99403808804476 -3.5 L 99.99403808804476 -0.5 L 78.83881591902238 -0.5 Z"/><text text-anchor="middle" pointer-events="none" font-size="8px" fill="#000000" x="62.49701904402238" y="3" transform="rotate(180 62.49701904402238 0)" font-family="Helvetica Neue, Helvetica, Arial, sans-serif">created</text></g><g class="relationship" transform="translate(348.3419180433655 -427.22969325380825) rotate(343.38878026891655)"><path class="b-outline" fill="#A5ABB6" stroke="none" d="M 25 0.5 L 110.62015525144096 0.5 L 110.62015525144096 -0.5 L 25 -0.5 Z M 143.30374900144096 0.5 L 228.92390425288193 0.5 L 228.92390425288193 3.5 L 235.92390425288193 0 L 228.92390425288193 -3.5 L 228.92390425288193 -0.5 L 143.30374900144096 -0.5 Z"/><text text-anchor="middle" pointer-events="none" font-size="8px" fill="#000000" x="126.96195212644096" y="3" font-family="Helvetica Neue, Helvetica, Arial, sans-serif">created</text></g><g class="relationship" transform="translate(816.8766731726375 -498.5064147137265) rotate(180.86924661854113)"><path class="b-outline" fill="#A5ABB6" stroke="none" d="M 25 0.5 L 89.42082181611859 0.5 L 89.42082181611859 -0.5 L 25 -0.5 Z M 122.10441556611859 0.5 L 186.52523738223718 0.5 L 186.52523738223718 3.5 L 193.52523738223718 0 L 186.52523738223718 -3.5 L 186.52523738223718 -0.5 L 122.10441556611859 -0.5 Z"/><text text-anchor="middle" pointer-events="none" font-size="8px" fill="#000000" x="105.76261869111859" y="3" transform="rotate(180 105.76261869111859 0)" font-family="Helvetica Neue, Helvetica, Arial, sans-serif">created</text></g><g class="relationship" transform="translate(721.4965609048865 -397.3750905255547) rotate(220.30897387230402)"><path class="b-outline" fill="#A5ABB6" stroke="none" d="M 25 0.5 L 60.88551902600321 0.5 L 60.88551902600321 -0.5 L 25 -0.5 Z M 93.56911277600321 0.5 L 129.45463180200642 0.5 L 129.45463180200642 3.5 L 136.45463180200642 0 L 129.45463180200642 -3.5 L 129.45463180200642 -0.5 L 93.56911277600321 -0.5 Z"/><text text-anchor="middle" pointer-events="none" font-size="8px" fill="#000000" x="77.22731590100321" y="3" transform="rotate(180 77.22731590100321 0)" font-family="Helvetica Neue, Helvetica, Arial, sans-serif">created</text></g><g class="relationship" transform="translate(663.6425218727207 -614.7299495091153) rotate(480.0297764792748)"><path class="b-outline" fill="#A5ABB6" stroke="none" d="M 25 0.5 L 45.36545415430898 0.5 L 45.36545415430898 -0.5 L 25 -0.5 Z M 78.04904790430898 0.5 L 98.41450205861796 0.5 L 98.41450205861796 3.5 L 105.41450205861796 0 L 98.41450205861796 -3.5 L 98.41450205861796 -0.5 L 78.04904790430898 -0.5 Z"/><text text-anchor="middle" pointer-events="none" font-size="8px" fill="#000000" x="61.70725102930898" y="3" transform="rotate(180 61.70725102930898 0)" font-family="Helvetica Neue, Helvetica, Arial, sans-serif">created</text></g><g class="relationship" transform="translate(761.2326208176878 -629.4995870770929) rotate(501.90379946882285)"><path class="b-outline" fill="#A5ABB6" stroke="none" d="M 25 0.5 L 83.62771798246081 0.5 L 83.62771798246081 -0.5 L 25 -0.5 Z M 116.31131173246081 0.5 L 174.93902971492162 0.5 L 174.93902971492162 3.5 L 181.93902971492162 0 L 174.93902971492162 -3.5 L 174.93902971492162 -0.5 L 116.31131173246081 -0.5 Z"/><text text-anchor="middle" pointer-events="none" font-size="8px" fill="#000000" x="99.96951485746081" y="3" transform="rotate(180 99.96951485746081 0)" font-family="Helvetica Neue, Helvetica, Arial, sans-serif">created</text></g><g class="relationship" transform="translate(721.4965609048865 -397.3750905255547) rotate(313.32362867538563)"><path class="b-outline" fill="#A5ABB6" stroke="none" d="M 25 0.5 L 48.77656425433328 0.5 L 48.77656425433328 -0.5 L 25 -0.5 Z M 83.23750175433328 0.5 L 107.01406600866656 0.5 L 107.01406600866656 3.5 L 114.01406600866656 0 L 107.01406600866656 -3.5 L 107.01406600866656 -0.5 L 83.23750175433328 -0.5 Z"/><text text-anchor="middle" pointer-events="none" font-size="8px" fill="#000000" x="66.00703300433328" y="3" font-family="Helvetica Neue, Helvetica, Arial, sans-serif">reply_to</text></g><g class="relationship" transform="translate(761.2326208176878 -629.4995870770929) rotate(426.9848991707788)"><path class="b-outline" fill="#A5ABB6" stroke="none" d="M 25 0.5 L 50.430390871527564 0.5 L 50.430390871527564 -0.5 L 25 -0.5 Z M 84.89132837152756 0.5 L 110.32171924305513 0.5 L 110.32171924305513 3.5 L 117.32171924305513 0 L 110.32171924305513 -3.5 L 110.32171924305513 -0.5 L 84.89132837152756 -0.5 Z"/><text text-anchor="middle" pointer-events="none" font-size="8px" fill="#000000" x="67.66085962152756" y="3" font-family="Helvetica Neue, Helvetica, Arial, sans-serif">reply_to</text></g><g class="relationship" transform="translate(663.6425218727207 -614.7299495091153) rotate(397.17923264465855)"><path class="b-outline" fill="#A5ABB6" stroke="none" d="M 25 0.5 L 75.43165368516252 0.5 L 75.43165368516252 -0.5 L 25 -0.5 Z M 109.89259118516252 0.5 L 160.32424487032503 0.5 L 160.32424487032503 3.5 L 167.32424487032503 0 L 160.32424487032503 -3.5 L 160.32424487032503 -0.5 L 109.89259118516252 -0.5 Z"/><text text-anchor="middle" pointer-events="none" font-size="8px" fill="#000000" x="92.66212243516252" y="3" font-family="Helvetica Neue, Helvetica, Arial, sans-serif">reply_to</text></g><g class="relationship" transform="translate(342.1666904368186 -610.2581490965792) rotate(516.7639056837614)"><path class="b-outline" fill="#A5ABB6" stroke="none" d="M 25 0.5 L 61.87696333351292 0.5 L 61.87696333351292 -0.5 L 25 -0.5 Z M 87.44727583351292 0.5 L 124.32423916702584 0.5 L 124.32423916702584 3.5 L 131.32423916702584 0 L 124.32423916702584 -3.5 L 124.32423916702584 -0.5 L 87.44727583351292 -0.5 Z"/><text text-anchor="middle" pointer-events="none" font-size="8px" fill="#000000" x="74.66211958351292" y="3" transform="rotate(180 74.66211958351292 0)" font-family="Helvetica Neue, Helvetica, Arial, sans-serif">voted</text></g><g class="relationship" transform="translate(97.62760271890647 -673.6914212664182) rotate(411.1148141093081)"><path class="b-outline" fill="#A5ABB6" stroke="none" d="M 25 0.5 L 64.07555989660209 0.5 L 64.07555989660209 -0.5 L 25 -0.5 Z M 89.64587239660209 0.5 L 128.72143229320417 0.5 L 128.72143229320417 3.5 L 135.72143229320417 0 L 128.72143229320417 -3.5 L 128.72143229320417 -0.5 L 89.64587239660209 -0.5 Z"/><text text-anchor="middle" pointer-events="none" font-size="8px" fill="#000000" x="76.86071614660209" y="3" font-family="Helvetica Neue, Helvetica, Arial, sans-serif">voted</text></g><g class="relationship" transform="translate(187.33159762129526 -716.1739178620144) rotate(446.17973471171916)"><path class="b-outline" fill="#A5ABB6" stroke="none" d="M 25 0.5 L 67.69592320649473 0.5 L 67.69592320649473 -0.5 L 25 -0.5 Z M 93.26623570649473 0.5 L 135.96215891298945 0.5 L 135.96215891298945 3.5 L 142.96215891298945 0 L 135.96215891298945 -3.5 L 135.96215891298945 -0.5 L 93.26623570649473 -0.5 Z"/><text text-anchor="middle" pointer-events="none" font-size="8px" fill="#000000" x="80.48107945649473" y="3" font-family="Helvetica Neue, Helvetica, Arial, sans-serif">voted</text></g><g class="relationship" transform="translate(283.3898408287158 -690.3046678248005) rotate(480.9148734250744)"><path class="b-outline" fill="#A5ABB6" stroke="none" d="M 25 0.5 L 66.30866394610472 0.5 L 66.30866394610472 -0.5 L 25 -0.5 Z M 91.87897644610472 0.5 L 133.18764039220943 0.5 L 133.18764039220943 3.5 L 140.18764039220943 0 L 133.18764039220943 -3.5 L 133.18764039220943 -0.5 L 91.87897644610472 -0.5 Z"/><text text-anchor="middle" pointer-events="none" font-size="8px" fill="#000000" x="79.09382019610472" y="3" transform="rotate(180 79.09382019610472 0)" font-family="Helvetica Neue, Helvetica, Arial, sans-serif">voted</text></g><g class="relationship" transform="translate(109.85908877100147 -256.0496910044026) rotate(286.8613112817434)"><path class="b-outline" fill="#A5ABB6" stroke="none" d="M 25 0.5 L 132.10774050238604 0.5 L 132.10774050238604 -0.5 L 25 -0.5 Z M 166.56867800238604 0.5 L 273.6764185047721 0.5 L 273.6764185047721 3.5 L 280.6764185047721 0 L 273.6764185047721 -3.5 L 273.6764185047721 -0.5 L 166.56867800238604 -0.5 Z"/><text text-anchor="middle" pointer-events="none" font-size="8px" fill="#000000" x="149.33820925238604" y="3" font-family="Helvetica Neue, Helvetica, Arial, sans-serif">reply_to</text></g><g class="relationship" transform="translate(-105.844232100093 -238.29514079295822) rotate(364.05597819587075)"><path class="b-outline" fill="#A5ABB6" stroke="none" d="M 25 0.5 L 39.43293400290777 0.5 L 39.43293400290777 -0.5 L 25 -0.5 Z M 73.89387150290777 0.5 L 88.32680550581554 0.5 L 88.32680550581554 3.5 L 95.32680550581554 0 L 88.32680550581554 -3.5 L 88.32680550581554 -0.5 L 73.89387150290777 -0.5 Z"/><text text-anchor="middle" pointer-events="none" font-size="8px" fill="#000000" x="56.66340275290777" y="3" font-family="Helvetica Neue, Helvetica, Arial, sans-serif">reply_to</text></g><g class="relationship" transform="translate(14.181205514573646 -229.78429778875892) rotate(314.82304883913105)"><path class="b-outline" fill="#A5ABB6" stroke="none" d="M 25 0.5 L 65.62354382972704 0.5 L 65.62354382972704 -0.5 L 25 -0.5 Z M 100.08448132972704 0.5 L 140.70802515945408 0.5 L 140.70802515945408 3.5 L 147.70802515945408 0 L 140.70802515945408 -3.5 L 140.70802515945408 -0.5 L 100.08448132972704 -0.5 Z"/><text text-anchor="middle" pointer-events="none" font-size="8px" fill="#000000" x="82.85401257972704" y="3" font-family="Helvetica Neue, Helvetica, Arial, sans-serif">reply_to</text></g><g class="relationship" transform="translate(-23.642197305176044 -513.7452252799983) rotate(474.0371593953727)"><path class="b-outline" fill="#A5ABB6" stroke="none" d="M 25 0.5 L 80.08698645106944 0.5 L 80.08698645106944 -0.5 L 25 -0.5 Z M 105.65729895106944 0.5 L 160.74428540213887 0.5 L 160.74428540213887 3.5 L 167.74428540213887 0 L 160.74428540213887 -3.5 L 160.74428540213887 -0.5 L 105.65729895106944 -0.5 Z"/><text text-anchor="middle" pointer-events="none" font-size="8px" fill="#000000" x="92.87214270106944" y="3" transform="rotate(180 92.87214270106944 0)" font-family="Helvetica Neue, Helvetica, Arial, sans-serif">voted</text></g><g class="relationship" transform="translate(-166.3009889541373 -492.0554224571821) rotate(427.43072587812674)"><path class="b-outline" fill="#A5ABB6" stroke="none" d="M 25 0.5 L 67.28495413290169 0.5 L 67.28495413290169 -0.5 L 25 -0.5 Z M 92.85526663290169 0.5 L 135.14022076580338 0.5 L 135.14022076580338 3.5 L 142.14022076580338 0 L 135.14022076580338 -3.5 L 135.14022076580338 -0.5 L 92.85526663290169 -0.5 Z"/><text text-anchor="middle" pointer-events="none" font-size="8px" fill="#000000" x="80.07011038290169" y="3" font-family="Helvetica Neue, Helvetica, Arial, sans-serif">voted</text></g><g class="relationship" transform="translate(14.181205514573646 -229.78429778875892) rotate(222.85428409120618)"><path class="b-outline" fill="#A5ABB6" stroke="none" d="M 25 0.5 L 58.614777364128514 0.5 L 58.614777364128514 -0.5 L 25 -0.5 Z M 93.07571486412851 0.5 L 126.69049222825703 0.5 L 126.69049222825703 3.5 L 133.69049222825703 0 L 126.69049222825703 -3.5 L 126.69049222825703 -0.5 L 93.07571486412851 -0.5 Z"/><text text-anchor="middle" pointer-events="none" font-size="8px" fill="#000000" x="75.84524611412851" y="3" transform="rotate(180 75.84524611412851 0)" font-family="Helvetica Neue, Helvetica, Arial, sans-serif">reply_to</text></g><g class="relationship" transform="translate(-420.06960533427565 -669.3455838616704) rotate(454.4542248620444)"><path class="b-outline" fill="#A5ABB6" stroke="none" d="M 25 0.5 L 62.772874109409955 0.5 L 62.772874109409955 -0.5 L 25 -0.5 Z M 88.34318660940995 0.5 L 126.11606071881991 0.5 L 126.11606071881991 3.5 L 133.1160607188199 0 L 126.11606071881991 -3.5 L 126.11606071881991 -0.5 L 88.34318660940995 -0.5 Z"/><text text-anchor="middle" pointer-events="none" font-size="8px" fill="#000000" x="75.55803035940995" y="3" transform="rotate(180 75.55803035940995 0)" font-family="Helvetica Neue, Helvetica, Arial, sans-serif">voted</text></g><g class="relationship" transform="translate(-517.0820023958635 -646.7543327573356) rotate(417.89460820478837)"><path class="b-outline" fill="#A5ABB6" stroke="none" d="M 25 0.5 L 63.429003654220935 0.5 L 63.429003654220935 -0.5 L 25 -0.5 Z M 88.99931615422094 0.5 L 127.42831980844187 0.5 L 127.42831980844187 3.5 L 134.42831980844187 0 L 127.42831980844187 -3.5 L 127.42831980844187 -0.5 L 88.99931615422094 -0.5 Z"/><text text-anchor="middle" pointer-events="none" font-size="8px" fill="#000000" x="76.21415990422094" y="3" font-family="Helvetica Neue, Helvetica, Arial, sans-serif">voted</text></g><g class="relationship" transform="translate(-580.0085576368893 -569.5108651833181) rotate(381.37872431939985)"><path class="b-outline" fill="#A5ABB6" stroke="none" d="M 25 0.5 L 62.99997888849116 0.5 L 62.99997888849116 -0.5 L 25 -0.5 Z M 88.57029138849116 0.5 L 126.57027027698231 0.5 L 126.57027027698231 3.5 L 133.5702702769823 0 L 126.57027027698231 -3.5 L 126.57027027698231 -0.5 L 88.57029138849116 -0.5 Z"/><text text-anchor="middle" pointer-events="none" font-size="8px" fill="#000000" x="75.78513513849116" y="3" font-family="Helvetica Neue, Helvetica, Arial, sans-serif">voted</text></g><g class="relationship" transform="translate(-276.7546666508734 -284.63770100014824) rotate(235.5799066333318)"><path class="b-outline" fill="#A5ABB6" stroke="none" d="M 25 0.5 L 116.90146499671093 0.5 L 116.90146499671093 -0.5 L 25 -0.5 Z M 151.36240249671093 0.5 L 243.26386749342186 0.5 L 243.26386749342186 3.5 L 250.26386749342186 0 L 243.26386749342186 -3.5 L 243.26386749342186 -0.5 L 151.36240249671093 -0.5 Z"/><text text-anchor="middle" pointer-events="none" font-size="8px" fill="#000000" x="134.13193374671093" y="3" transform="rotate(180 134.13193374671093 0)" font-family="Helvetica Neue, Helvetica, Arial, sans-serif">reply_to</text></g><g class="relationship" transform="translate(40.41812199811679 -325.29060300378615) rotate(341.6827206771045)"><path class="b-outline" fill="#A5ABB6" stroke="none" d="M 25 0.5 L 141.44893984732943 0.5 L 141.44893984732943 -0.5 L 25 -0.5 Z M 175.90987734732943 0.5 L 292.35881719465885 0.5 L 292.35881719465885 3.5 L 299.35881719465885 0 L 292.35881719465885 -3.5 L 292.35881719465885 -0.5 L 175.90987734732943 -0.5 Z"/><text text-anchor="middle" pointer-events="none" font-size="8px" fill="#000000" x="158.67940859732943" y="3" font-family="Helvetica Neue, Helvetica, Arial, sans-serif">reply_to</text></g><g class="relationship" transform="translate(-82.14290331654236 -434.61443234763027) rotate(401.7328041901924)"><path class="b-outline" fill="#A5ABB6" stroke="none" d="M 25 0.5 L 65.83199267241217 0.5 L 65.83199267241217 -0.5 L 25 -0.5 Z M 91.40230517241217 0.5 L 132.23429784482434 0.5 L 132.23429784482434 3.5 L 139.23429784482434 0 L 132.23429784482434 -3.5 L 132.23429784482434 -0.5 L 91.40230517241217 -0.5 Z"/><text text-anchor="middle" pointer-events="none" font-size="8px" fill="#000000" x="78.61714892241217" y="3" font-family="Helvetica Neue, Helvetica, Arial, sans-serif">voted</text></g><g class="relationship" transform="translate(-431.4410580212275 -294.86344982926863) rotate(398.95276848509945)"><path class="b-outline" fill="#A5ABB6" stroke="none" d="M 25 0.5 L 66.80489270504646 0.5 L 66.80489270504646 -0.5 L 25 -0.5 Z M 101.26583020504646 0.5 L 143.0707229100929 0.5 L 143.0707229100929 3.5 L 150.0707229100929 0 L 143.0707229100929 -3.5 L 143.0707229100929 -0.5 L 101.26583020504646 -0.5 Z"/><text text-anchor="middle" pointer-events="none" font-size="8px" fill="#000000" x="84.03536145504646" y="3" font-family="Helvetica Neue, Helvetica, Arial, sans-serif">reply_to</text></g><g class="relationship" transform="translate(-429.698715375663 -29.686862672719172) rotate(289.23964005878344)"><path class="b-outline" fill="#A5ABB6" stroke="none" d="M 25 0.5 L 42.74717803749708 0.5 L 42.74717803749708 -0.5 L 25 -0.5 Z M 77.20811553749708 0.5 L 94.95529357499416 0.5 L 94.95529357499416 3.5 L 101.95529357499416 0 L 94.95529357499416 -3.5 L 94.95529357499416 -0.5 L 77.20811553749708 -0.5 Z"/><text text-anchor="middle" pointer-events="none" font-size="8px" fill="#000000" x="59.97764678749708" y="3" font-family="Helvetica Neue, Helvetica, Arial, sans-serif">reply_to</text></g><g class="relationship" transform="translate(-387.8644153729426 -149.55152764949761) rotate(201.19780761036088)"><path class="b-outline" fill="#A5ABB6" stroke="none" d="M 25 0.5 L 64.7934300747187 0.5 L 64.7934300747187 -0.5 L 25 -0.5 Z M 99.2543675747187 0.5 L 139.0477976494374 0.5 L 139.0477976494374 3.5 L 146.0477976494374 0 L 139.0477976494374 -3.5 L 139.0477976494374 -0.5 L 99.2543675747187 -0.5 Z"/><text text-anchor="middle" pointer-events="none" font-size="8px" fill="#000000" x="82.0238988247187" y="3" transform="rotate(180 82.0238988247187 0)" font-family="Helvetica Neue, Helvetica, Arial, sans-serif">reply_to</text></g><g class="relationship" transform="translate(-592.9637625701838 -73.5091881924519) rotate(375.02474681839186)"><path class="b-outline" fill="#A5ABB6" stroke="none" d="M 25 0.5 L 68.23684066409703 0.5 L 68.23684066409703 -0.5 L 25 -0.5 Z M 93.80715316409703 0.5 L 137.04399382819406 0.5 L 137.04399382819406 3.5 L 144.04399382819406 0 L 137.04399382819406 -3.5 L 137.04399382819406 -0.5 L 93.80715316409703 -0.5 Z"/><text text-anchor="middle" pointer-events="none" font-size="8px" fill="#000000" x="81.02199691409703" y="3" font-family="Helvetica Neue, Helvetica, Arial, sans-serif">voted</text></g><g class="relationship" transform="translate(-587.6849441095941 25.812200499704165) rotate(340.6441086899142)"><path class="b-outline" fill="#A5ABB6" stroke="none" d="M 25 0.5 L 67.44027967389744 0.5 L 67.44027967389744 -0.5 L 25 -0.5 Z M 93.01059217389744 0.5 L 135.45087184779487 0.5 L 135.45087184779487 3.5 L 142.45087184779487 0 L 135.45087184779487 -3.5 L 135.45087184779487 -0.5 L 93.01059217389744 -0.5 Z"/><text text-anchor="middle" pointer-events="none" font-size="8px" fill="#000000" x="80.22543592389744" y="3" font-family="Helvetica Neue, Helvetica, Arial, sans-serif">voted</text></g><g class="relationship" transform="translate(-310.3858892407821 -87.1023778935262) rotate(309.70167677389526)"><path class="b-outline" fill="#A5ABB6" stroke="none" d="M 25 0.5 L 63.968315053620415 0.5 L 63.968315053620415 -0.5 L 25 -0.5 Z M 98.42925255362042 0.5 L 137.39756760724083 0.5 L 137.39756760724083 3.5 L 144.39756760724083 0 L 137.39756760724083 -3.5 L 137.39756760724083 -0.5 L 98.42925255362042 -0.5 Z"/><text text-anchor="middle" pointer-events="none" font-size="8px" fill="#000000" x="81.19878380362042" y="3" font-family="Helvetica Neue, Helvetica, Arial, sans-serif">reply_to</text></g><g class="relationship" transform="translate(-337.3274855796049 9.050679899796517) rotate(507.4530505191308)"><path class="b-outline" fill="#A5ABB6" stroke="none" d="M 25 0.5 L 65.85812143568164 0.5 L 65.85812143568164 -0.5 L 25 -0.5 Z M 100.31905893568164 0.5 L 141.17718037136328 0.5 L 141.17718037136328 3.5 L 148.17718037136328 0 L 141.17718037136328 -3.5 L 141.17718037136328 -0.5 L 100.31905893568164 -0.5 Z"/><text text-anchor="middle" pointer-events="none" font-size="8px" fill="#000000" x="83.08859018568164" y="3" transform="rotate(180 83.08859018568164 0)" font-family="Helvetica Neue, Helvetica, Arial, sans-serif">reply_to</text></g><g class="relationship" transform="translate(-762.0097131806697 294.11636060238726) rotate(373.32646830363507)"><path class="b-outline" fill="#A5ABB6" stroke="none" d="M 25 0.5 L 62.136597830817806 0.5 L 62.136597830817806 -0.5 L 25 -0.5 Z M 87.7069103308178 0.5 L 124.84350816163561 0.5 L 124.84350816163561 3.5 L 131.8435081616356 0 L 124.84350816163561 -3.5 L 124.84350816163561 -0.5 L 87.7069103308178 -0.5 Z"/><text text-anchor="middle" pointer-events="none" font-size="8px" fill="#000000" x="74.9217540808178" y="3" font-family="Helvetica Neue, Helvetica, Arial, sans-serif">voted</text></g><g class="relationship" transform="translate(-687.1597644980826 466.3705972267698) rotate(299.7441288736825)"><path class="b-outline" fill="#A5ABB6" stroke="none" d="M 25 0.5 L 62.092024511033884 0.5 L 62.092024511033884 -0.5 L 25 -0.5 Z M 87.66233701103388 0.5 L 124.75436152206777 0.5 L 124.75436152206777 3.5 L 131.75436152206777 0 L 124.75436152206777 -3.5 L 124.75436152206777 -0.5 L 87.66233701103388 -0.5 Z"/><text text-anchor="middle" pointer-events="none" font-size="8px" fill="#000000" x="74.87718076103388" y="3" font-family="Helvetica Neue, Helvetica, Arial, sans-serif">voted</text></g><g class="relationship" transform="translate(-755.1010777990705 393.4735860939989) rotate(336.55036390490454)"><path class="b-outline" fill="#A5ABB6" stroke="none" d="M 25 0.5 L 63.129408917222676 0.5 L 63.129408917222676 -0.5 L 25 -0.5 Z M 88.69972141722268 0.5 L 126.82913033444535 0.5 L 126.82913033444535 3.5 L 133.82913033444535 0 L 126.82913033444535 -3.5 L 126.82913033444535 -0.5 L 88.69972141722268 -0.5 Z"/><text text-anchor="middle" pointer-events="none" font-size="8px" fill="#000000" x="75.91456516722268" y="3" font-family="Helvetica Neue, Helvetica, Arial, sans-serif">voted</text></g><g class="relationship" transform="translate(-363.17532216189113 212.93029351867543) rotate(514.5189242463125)"><path class="b-outline" fill="#A5ABB6" stroke="none" d="M 25 0.5 L 115.64197285987663 0.5 L 115.64197285987663 -0.5 L 25 -0.5 Z M 150.10291035987663 0.5 L 240.74488321975326 0.5 L 240.74488321975326 3.5 L 247.74488321975326 0 L 240.74488321975326 -3.5 L 240.74488321975326 -0.5 L 150.10291035987663 -0.5 Z"/><text text-anchor="middle" pointer-events="none" font-size="8px" fill="#000000" x="132.87244160987663" y="3" transform="rotate(180 132.87244160987663 0)" font-family="Helvetica Neue, Helvetica, Arial, sans-serif">reply_to</text></g><g class="relationship" transform="translate(-480.5052006224387 613.2289398881775) rotate(273.65575236472205)"><path class="b-outline" fill="#A5ABB6" stroke="none" d="M 25 0.5 L 63.91589869514148 0.5 L 63.91589869514148 -0.5 L 25 -0.5 Z M 89.48621119514148 0.5 L 128.40210989028296 0.5 L 128.40210989028296 3.5 L 135.40210989028296 0 L 128.40210989028296 -3.5 L 128.40210989028296 -0.5 L 89.48621119514148 -0.5 Z"/><text text-anchor="middle" pointer-events="none" font-size="8px" fill="#000000" x="76.70105494514148" y="3" font-family="Helvetica Neue, Helvetica, Arial, sans-serif">voted</text></g><g class="relationship" transform="translate(-573.0762941797896 576.3980589157094) rotate(309.8315062326227)"><path class="b-outline" fill="#A5ABB6" stroke="none" d="M 25 0.5 L 63.959532737306006 0.5 L 63.959532737306006 -0.5 L 25 -0.5 Z M 89.529845237306 0.5 L 128.489377974612 0.5 L 128.489377974612 3.5 L 135.489377974612 0 L 128.489377974612 -3.5 L 128.489377974612 -0.5 L 89.529845237306 -0.5 Z"/><text text-anchor="middle" pointer-events="none" font-size="8px" fill="#000000" x="76.744688987306" y="3" font-family="Helvetica Neue, Helvetica, Arial, sans-serif">voted</text></g><g class="relationship" transform="translate(-363.17532216189113 212.93029351867543) rotate(474.0295006446071)"><path class="b-outline" fill="#A5ABB6" stroke="none" d="M 25 0.5 L 110.77806264944567 0.5 L 110.77806264944567 -0.5 L 25 -0.5 Z M 145.23900014944567 0.5 L 231.01706279889135 0.5 L 231.01706279889135 3.5 L 238.01706279889135 0 L 231.01706279889135 -3.5 L 231.01706279889135 -0.5 L 145.23900014944567 -0.5 Z"/><text text-anchor="middle" pointer-events="none" font-size="8px" fill="#000000" x="128.00853139944567" y="3" transform="rotate(180 128.00853139944567 0)" font-family="Helvetica Neue, Helvetica, Arial, sans-serif">reply_to</text></g><g class="relationship" transform="translate(-296.8223863425293 670.3460588436219) rotate(307.53806999945834)"><path class="b-outline" fill="#A5ABB6" stroke="none" d="M 25 0.5 L 63.31644247147206 0.5 L 63.31644247147206 -0.5 L 25 -0.5 Z M 88.88675497147206 0.5 L 127.20319744294412 0.5 L 127.20319744294412 3.5 L 134.20319744294412 0 L 127.20319744294412 -3.5 L 127.20319744294412 -0.5 L 88.88675497147206 -0.5 Z"/><text text-anchor="middle" pointer-events="none" font-size="8px" fill="#000000" x="76.10159872147206" y="3" font-family="Helvetica Neue, Helvetica, Arial, sans-serif">voted</text></g><g class="relationship" transform="translate(-206.01616646976333 710.7616019479224) rotate(272.128656773898)"><path class="b-outline" fill="#A5ABB6" stroke="none" d="M 25 0.5 L 67.10013833509026 0.5 L 67.10013833509026 -0.5 L 25 -0.5 Z M 92.67045083509026 0.5 L 134.77058917018053 0.5 L 134.77058917018053 3.5 L 141.77058917018053 0 L 134.77058917018053 -3.5 L 134.77058917018053 -0.5 L 92.67045083509026 -0.5 Z"/><text text-anchor="middle" pointer-events="none" font-size="8px" fill="#000000" x="79.88529458509026" y="3" font-family="Helvetica Neue, Helvetica, Arial, sans-serif">voted</text></g><g class="relationship" transform="translate(-111.13437115546844 680.7070825998434) rotate(237.00660038651296)"><path class="b-outline" fill="#A5ABB6" stroke="none" d="M 25 0.5 L 65.14775434957289 0.5 L 65.14775434957289 -0.5 L 25 -0.5 Z M 90.71806684957289 0.5 L 130.86582119914578 0.5 L 130.86582119914578 3.5 L 137.86582119914578 0 L 130.86582119914578 -3.5 L 130.86582119914578 -0.5 L 90.71806684957289 -0.5 Z"/><text text-anchor="middle" pointer-events="none" font-size="8px" fill="#000000" x="77.93291059957289" y="3" transform="rotate(180 77.93291059957289 0)" font-family="Helvetica Neue, Helvetica, Arial, sans-serif">voted</text></g><g class="relationship" transform="translate(-171.2725685119836 258.57762558578014) rotate(455.7098587856933)"><path class="b-outline" fill="#A5ABB6" stroke="none" d="M 25 0.5 L 122.74562720488183 0.5 L 122.74562720488183 -0.5 L 25 -0.5 Z M 157.20656470488183 0.5 L 254.95219190976366 0.5 L 254.95219190976366 3.5 L 261.95219190976366 0 L 254.95219190976366 -3.5 L 254.95219190976366 -0.5 L 157.20656470488183 -0.5 Z"/><text text-anchor="middle" pointer-events="none" font-size="8px" fill="#000000" x="139.97609595488183" y="3" transform="rotate(180 139.97609595488183 0)" font-family="Helvetica Neue, Helvetica, Arial, sans-serif">reply_to</text></g></g><g class="layer nodes"><g class="node" aria-label="graph-node2643" transform="translate(-108.97989776751187,-38.317600212797196)"><circle class="b-outline" cx="0" cy="0" r="25" fill="#C990C0" stroke="#b261a5" stroke-width="2px"/><text class="caption" text-anchor="middle" pointer-events="none" x="0" y="5" font-size="10px" fill="#FFFFFF" font-family="Helvetica Neue, Helvetica, Arial, sans-serif"> Chalarca</text></g><g class="node" aria-label="graph-node543" transform="translate(-262.9714463406679,72.66228391483597)"><circle class="b-outline" cx="0" cy="0" r="25" fill="#57C7E3" stroke="#23b3d7" stroke-width="2px"/><text class="caption" text-anchor="middle" pointer-events="none" x="0" y="5" font-size="10px" fill="#2A2C34" font-family="Helvetica Neue, Helvetica, Arial, sans-serif"> NCIT</text></g><g class="node" aria-label="graph-node544" transform="translate(-76.0298801472505,229.6399887335954)"><circle class="b-outline" cx="0" cy="0" r="25" fill="#57C7E3" stroke="#23b3d7" stroke-width="2px"/><text class="caption" text-anchor="middle" pointer-events="none" x="0" y="5" font-size="10px" fill="#2A2C34" font-family="Helvetica Neue, Helvetica, Arial, sans-serif"> NCIT</text></g><g class="node" aria-label="graph-node546" transform="translate(-23.872143230127325,473.5479703728187)"><circle class="b-outline" cx="0" cy="0" r="25" fill="#8DCC93" stroke="#5db665" stroke-width="2px"/><text class="caption" text-anchor="middle" pointer-events="none" x="0" y="5" font-size="10px" fill="#2A2C34" font-family="Helvetica Neue, Helvetica, Arial, sans-serif"> 2024-02…</text></g><g class="node" aria-label="graph-node547" transform="translate(28.177175385301883,633.9341951643356)"><circle class="b-outline" cx="0" cy="0" r="25" fill="#DA7194" stroke="#cc3c6c" stroke-width="2px"/><text class="caption" text-anchor="middle" pointer-events="none" x="0" y="5" font-size="10px" fill="#FFFFFF" font-family="Helvetica Neue, Helvetica, Arial, sans-serif"> </text></g><g class="node" aria-label="graph-node545" transform="translate(-8.459177002177894,156.81557174947147)"><circle class="b-outline" cx="0" cy="0" r="25" fill="#57C7E3" stroke="#23b3d7" stroke-width="2px"/><text class="caption" text-anchor="middle" pointer-events="none" x="0" y="5" font-size="10px" fill="#2A2C34" font-family="Helvetica Neue, Helvetica, Arial, sans-serif"> OCHV</text></g><g class="node" aria-label="graph-node548" transform="translate(46.89290431603654,325.2678792378689)"><circle class="b-outline" cx="0" cy="0" r="25" fill="#8DCC93" stroke="#5db665" stroke-width="2px"/><text class="caption" text-anchor="middle" pointer-events="none" x="0" y="5" font-size="10px" fill="#2A2C34" font-family="Helvetica Neue, Helvetica, Arial, sans-serif"> 2024-02…</text></g><g class="node" aria-label="graph-node549" transform="translate(-53.68451728358893,-155.91286991958637)"><circle class="b-outline" cx="0" cy="0" r="25" fill="#57C7E3" stroke="#23b3d7" stroke-width="2px"/><text class="caption" text-anchor="middle" pointer-events="none" x="0" y="5" font-size="10px" fill="#2A2C34" font-family="Helvetica Neue, Helvetica, Arial, sans-serif"> NCIT</text></g><g class="node" aria-label="graph-node550" transform="translate(-201.51739739152168,148.5410425784009)"><circle class="b-outline" cx="0" cy="0" r="25" fill="#57C7E3" stroke="#23b3d7" stroke-width="2px"/><text class="caption" text-anchor="middle" pointer-events="none" x="0" y="5" font-size="10px" fill="#2A2C34" font-family="Helvetica Neue, Helvetica, Arial, sans-serif"> NCIT</text></g><g class="node" aria-label="graph-node551" transform="translate(61.59695699476476,226.26694955545014)"><circle class="b-outline" cx="0" cy="0" r="25" fill="#57C7E3" stroke="#23b3d7" stroke-width="2px"/><text class="caption" text-anchor="middle" pointer-events="none" x="0" y="5" font-size="10px" fill="#2A2C34" font-family="Helvetica Neue, Helvetica, Arial, sans-serif"> NCIT</text></g><g class="node" aria-label="graph-node552" transform="translate(196.96189886853503,475.8283759252988)"><circle class="b-outline" cx="0" cy="0" r="25" fill="#8DCC93" stroke="#5db665" stroke-width="2px"/><text class="caption" text-anchor="middle" pointer-events="none" x="0" y="5" font-size="10px" fill="#2A2C34" font-family="Helvetica Neue, Helvetica, Arial, sans-serif"> 2024-03…</text></g><g class="node" aria-label="graph-node554" transform="translate(234.32945089478196,636.8530371883182)"><circle class="b-outline" cx="0" cy="0" r="25" fill="#DA7194" stroke="#cc3c6c" stroke-width="2px"/><text class="caption" text-anchor="middle" pointer-events="none" x="0" y="5" font-size="10px" fill="#FFFFFF" font-family="Helvetica Neue, Helvetica, Arial, sans-serif"> 1233845…</text></g><g class="node" aria-label="graph-node553" transform="translate(320.63025553907977,587.2363365318304)"><circle class="b-outline" cx="0" cy="0" r="25" fill="#DA7194" stroke="#cc3c6c" stroke-width="2px"/><text class="caption" text-anchor="middle" pointer-events="none" x="0" y="5" font-size="10px" fill="#FFFFFF" font-family="Helvetica Neue, Helvetica, Arial, sans-serif"> </text></g><g class="node" aria-label="graph-node565" transform="translate(87.0948890366891,130.40461940864515)"><circle class="b-outline" cx="0" cy="0" r="25" fill="#57C7E3" stroke="#23b3d7" stroke-width="2px"/><text class="caption" text-anchor="middle" pointer-events="none" x="0" y="5" font-size="10px" fill="#2A2C34" font-family="Helvetica Neue, Helvetica, Arial, sans-serif"> NCIT</text></g><g class="node" aria-label="graph-node566" transform="translate(262.64004856488316,301.6832933138426)"><circle class="b-outline" cx="0" cy="0" r="25" fill="#8DCC93" stroke="#5db665" stroke-width="2px"/><text class="caption" text-anchor="middle" pointer-events="none" x="0" y="5" font-size="10px" fill="#2A2C34" font-family="Helvetica Neue, Helvetica, Arial, sans-serif"> 2024-03…</text></g><g class="node" aria-label="graph-node567" transform="translate(373.02581691712686,428.7085341718451)"><circle class="b-outline" cx="0" cy="0" r="25" fill="#DA7194" stroke="#cc3c6c" stroke-width="2px"/><text class="caption" text-anchor="middle" pointer-events="none" x="0" y="5" font-size="10px" fill="#FFFFFF" font-family="Helvetica Neue, Helvetica, Arial, sans-serif"> 1560684…</text></g><g class="node" aria-label="graph-node2095" transform="translate(174.7484435311352,82.97562454616268)"><circle class="b-outline" cx="0" cy="0" r="25" fill="#57C7E3" stroke="#23b3d7" stroke-width="2px"/><text class="caption" text-anchor="middle" pointer-events="none" x="0" y="5" font-size="10px" fill="#2A2C34" font-family="Helvetica Neue, Helvetica, Arial, sans-serif"> CPRO</text></g><g class="node" aria-label="graph-node2096" transform="translate(430.84010604141946,229.21187767890936)"><circle class="b-outline" cx="0" cy="0" r="25" fill="#8DCC93" stroke="#5db665" stroke-width="2px"/><text class="caption" text-anchor="middle" pointer-events="none" x="0" y="5" font-size="10px" fill="#2A2C34" font-family="Helvetica Neue, Helvetica, Arial, sans-serif"> 2024-03…</text></g><g class="node" aria-label="graph-node2099" transform="translate(493.4853361522217,380.2823875974908)"><circle class="b-outline" cx="0" cy="0" r="25" fill="#DA7194" stroke="#cc3c6c" stroke-width="2px"/><text class="caption" text-anchor="middle" pointer-events="none" x="0" y="5" font-size="10px" fill="#FFFFFF" font-family="Helvetica Neue, Helvetica, Arial, sans-serif"> 2070836…</text></g><g class="node" aria-label="graph-node2098" transform="translate(574.5859507754601,323.03116992510894)"><circle class="b-outline" cx="0" cy="0" r="25" fill="#DA7194" stroke="#cc3c6c" stroke-width="2px"/><text class="caption" text-anchor="middle" pointer-events="none" x="0" y="5" font-size="10px" fill="#FFFFFF" font-family="Helvetica Neue, Helvetica, Arial, sans-serif"> 2070836…</text></g><g class="node" aria-label="graph-node2097" transform="translate(593.2577751290694,225.3236286689283)"><circle class="b-outline" cx="0" cy="0" r="25" fill="#DA7194" stroke="#cc3c6c" stroke-width="2px"/><text class="caption" text-anchor="middle" pointer-events="none" x="0" y="5" font-size="10px" fill="#FFFFFF" font-family="Helvetica Neue, Helvetica, Arial, sans-serif"> 2070836…</text></g><g class="node" aria-label="graph-node2188" transform="translate(214.03396260781125,-38.113372506223065)"><circle class="b-outline" cx="0" cy="0" r="25" fill="#57C7E3" stroke="#23b3d7" stroke-width="2px"/><text class="caption" text-anchor="middle" pointer-events="none" x="0" y="5" font-size="10px" fill="#2A2C34" font-family="Helvetica Neue, Helvetica, Arial, sans-serif"> NCIT</text></g><g class="node" aria-label="graph-node2190" transform="translate(515.2512417244416,-24.27222945247319)"><circle class="b-outline" cx="0" cy="0" r="25" fill="#8DCC93" stroke="#5db665" stroke-width="2px"/><text class="caption" text-anchor="middle" pointer-events="none" x="0" y="5" font-size="10px" fill="#2A2C34" font-family="Helvetica Neue, Helvetica, Arial, sans-serif"> 2024-02…</text></g><g class="node" aria-label="graph-node564" transform="translate(553.3526412954411,-169.52482445891278)"><circle class="b-outline" cx="0" cy="0" r="25" fill="#DA7194" stroke="#cc3c6c" stroke-width="2px"/><text class="caption" text-anchor="middle" pointer-events="none" x="0" y="5" font-size="10px" fill="#FFFFFF" font-family="Helvetica Neue, Helvetica, Arial, sans-serif"> 1172210…</text></g><g class="node" aria-label="graph-node562" transform="translate(663.9795481248959,59.95911028293147)"><circle class="b-outline" cx="0" cy="0" r="25" fill="#DA7194" stroke="#cc3c6c" stroke-width="2px"/><text class="caption" text-anchor="middle" pointer-events="none" x="0" y="5" font-size="10px" fill="#FFFFFF" font-family="Helvetica Neue, Helvetica, Arial, sans-serif"> 1172210…</text></g><g class="node" aria-label="graph-node560" transform="translate(580.8376675447814,113.81578295067688)"><circle class="b-outline" cx="0" cy="0" r="25" fill="#DA7194" stroke="#cc3c6c" stroke-width="2px"/><text class="caption" text-anchor="middle" pointer-events="none" x="0" y="5" font-size="10px" fill="#FFFFFF" font-family="Helvetica Neue, Helvetica, Arial, sans-serif"> 1172210…</text></g><g class="node" aria-label="graph-node558" transform="translate(642.2574522836119,-125.49296419008276)"><circle class="b-outline" cx="0" cy="0" r="25" fill="#DA7194" stroke="#cc3c6c" stroke-width="2px"/><text class="caption" text-anchor="middle" pointer-events="none" x="0" y="5" font-size="10px" fill="#FFFFFF" font-family="Helvetica Neue, Helvetica, Arial, sans-serif"> 1172210…</text></g><g class="node" aria-label="graph-node556" transform="translate(686.1350874899364,-36.25708217681638)"><circle class="b-outline" cx="0" cy="0" r="25" fill="#DA7194" stroke="#cc3c6c" stroke-width="2px"/><text class="caption" text-anchor="middle" pointer-events="none" x="0" y="5" font-size="10px" fill="#FFFFFF" font-family="Helvetica Neue, Helvetica, Arial, sans-serif"> 1172210…</text></g><g class="node" aria-label="graph-node2642" transform="translate(598.3765838238895,-501.82158100702685)"><circle class="b-outline" cx="0" cy="0" r="25" fill="#C990C0" stroke="#b261a5" stroke-width="2px"/><text class="caption" text-anchor="middle" pointer-events="none" x="0" y="5" font-size="10px" fill="#FFFFFF" font-family="Helvetica Neue, Helvetica, Arial, sans-serif"> turi</text></g><g class="node" aria-label="graph-node2594" transform="translate(816.8766731726375,-498.5064147137265)"><circle class="b-outline" cx="0" cy="0" r="25" fill="#57C7E3" stroke="#23b3d7" stroke-width="2px"/><text class="caption" text-anchor="middle" pointer-events="none" x="0" y="5" font-size="10px" fill="#2A2C34" font-family="Helvetica Neue, Helvetica, Arial, sans-serif"> NCIT</text></g><g class="node" aria-label="graph-node2687" transform="translate(721.4965609048865,-397.3750905255547)"><circle class="b-outline" cx="0" cy="0" r="25" fill="#8DCC93" stroke="#5db665" stroke-width="2px"/><text class="caption" text-anchor="middle" pointer-events="none" x="0" y="5" font-size="10px" fill="#2A2C34" font-family="Helvetica Neue, Helvetica, Arial, sans-serif"> 2022-01…</text></g><g class="node" aria-label="graph-node2685" transform="translate(761.2326208176878,-629.4995870770929)"><circle class="b-outline" cx="0" cy="0" r="25" fill="#8DCC93" stroke="#5db665" stroke-width="2px"/><text class="caption" text-anchor="middle" pointer-events="none" x="0" y="5" font-size="10px" fill="#2A2C34" font-family="Helvetica Neue, Helvetica, Arial, sans-serif"> </text></g><g class="node" aria-label="graph-node2686" transform="translate(663.6425218727207,-614.7299495091153)"><circle class="b-outline" cx="0" cy="0" r="25" fill="#8DCC93" stroke="#5db665" stroke-width="2px"/><text class="caption" text-anchor="middle" pointer-events="none" x="0" y="5" font-size="10px" fill="#2A2C34" font-family="Helvetica Neue, Helvetica, Arial, sans-serif"> 2022-01…</text></g><g class="node" aria-label="graph-node2595" transform="translate(109.85908877100147,-256.0496910044026)"><circle class="b-outline" cx="0" cy="0" r="25" fill="#57C7E3" stroke="#23b3d7" stroke-width="2px"/><text class="caption" text-anchor="middle" pointer-events="none" x="0" y="5" font-size="10px" fill="#2A2C34" font-family="Helvetica Neue, Helvetica, Arial, sans-serif"> SNOME…</text></g><g class="node" aria-label="graph-node4003" transform="translate(198.52238124966922,-548.5849767337429)"><circle class="b-outline" cx="0" cy="0" r="25" fill="#8DCC93" stroke="#5db665" stroke-width="2px"/><text class="caption" text-anchor="middle" pointer-events="none" x="0" y="5" font-size="10px" fill="#2A2C34" font-family="Helvetica Neue, Helvetica, Arial, sans-serif"> 2024-03…</text></g><g class="node" aria-label="graph-node4007" transform="translate(342.1666904368186,-610.2581490965792)"><circle class="b-outline" cx="0" cy="0" r="25" fill="#DA7194" stroke="#cc3c6c" stroke-width="2px"/><text class="caption" text-anchor="middle" pointer-events="none" x="0" y="5" font-size="10px" fill="#FFFFFF" font-family="Helvetica Neue, Helvetica, Arial, sans-serif"> 1155345…</text></g><g class="node" aria-label="graph-node4006" transform="translate(97.62760271890647,-673.6914212664182)"><circle class="b-outline" cx="0" cy="0" r="25" fill="#DA7194" stroke="#cc3c6c" stroke-width="2px"/><text class="caption" text-anchor="middle" pointer-events="none" x="0" y="5" font-size="10px" fill="#FFFFFF" font-family="Helvetica Neue, Helvetica, Arial, sans-serif"> 1155345…</text></g><g class="node" aria-label="graph-node4005" transform="translate(187.33159762129526,-716.1739178620144)"><circle class="b-outline" cx="0" cy="0" r="25" fill="#DA7194" stroke="#cc3c6c" stroke-width="2px"/><text class="caption" text-anchor="middle" pointer-events="none" x="0" y="5" font-size="10px" fill="#FFFFFF" font-family="Helvetica Neue, Helvetica, Arial, sans-serif"> 1155345…</text></g><g class="node" aria-label="graph-node4004" transform="translate(283.3898408287158,-690.3046678248005)"><circle class="b-outline" cx="0" cy="0" r="25" fill="#DA7194" stroke="#cc3c6c" stroke-width="2px"/><text class="caption" text-anchor="middle" pointer-events="none" x="0" y="5" font-size="10px" fill="#FFFFFF" font-family="Helvetica Neue, Helvetica, Arial, sans-serif"> 1155345…</text></g><g class="node" aria-label="graph-node2596" transform="translate(-37.545070799112644,62.390810894313475)"><circle class="b-outline" cx="0" cy="0" r="25" fill="#57C7E3" stroke="#23b3d7" stroke-width="2px"/><text class="caption" text-anchor="middle" pointer-events="none" x="0" y="5" font-size="10px" fill="#2A2C34" font-family="Helvetica Neue, Helvetica, Arial, sans-serif"> NCIT</text></g><g class="node" aria-label="graph-node2597" transform="translate(-217.494477989139,-120.19713533646853)"><circle class="b-outline" cx="0" cy="0" r="25" fill="#57C7E3" stroke="#23b3d7" stroke-width="2px"/><text class="caption" text-anchor="middle" pointer-events="none" x="0" y="5" font-size="10px" fill="#2A2C34" font-family="Helvetica Neue, Helvetica, Arial, sans-serif"> NCIT</text></g><g class="node" aria-label="graph-node2598" transform="translate(14.181205514573646,-229.78429778875892)"><circle class="b-outline" cx="0" cy="0" r="25" fill="#57C7E3" stroke="#23b3d7" stroke-width="2px"/><text class="caption" text-anchor="middle" pointer-events="none" x="0" y="5" font-size="10px" fill="#2A2C34" font-family="Helvetica Neue, Helvetica, Arial, sans-serif"> NCIT</text></g><g class="node" aria-label="graph-node2186" transform="translate(135.9264771349542,-352.2838928597565)"><circle class="b-outline" cx="0" cy="0" r="25" fill="#8DCC93" stroke="#5db665" stroke-width="2px"/><text class="caption" text-anchor="middle" pointer-events="none" x="0" y="5" font-size="10px" fill="#2A2C34" font-family="Helvetica Neue, Helvetica, Arial, sans-serif"> 2024-02…</text></g><g class="node" aria-label="graph-node783" transform="translate(-102.15254221093997,-337.7154400220507)"><circle class="b-outline" cx="0" cy="0" r="25" fill="#8DCC93" stroke="#5db665" stroke-width="2px"/><text class="caption" text-anchor="middle" pointer-events="none" x="0" y="5" font-size="10px" fill="#2A2C34" font-family="Helvetica Neue, Helvetica, Arial, sans-serif"> 2024</text></g><g class="node" aria-label="graph-node2183" transform="translate(-23.642197305176044,-513.7452252799983)"><circle class="b-outline" cx="0" cy="0" r="25" fill="#DA7194" stroke="#cc3c6c" stroke-width="2px"/><text class="caption" text-anchor="middle" pointer-events="none" x="0" y="5" font-size="10px" fill="#FFFFFF" font-family="Helvetica Neue, Helvetica, Arial, sans-serif"> </text></g><g class="node" aria-label="graph-node2174" transform="translate(-166.3009889541373,-492.0554224571821)"><circle class="b-outline" cx="0" cy="0" r="25" fill="#DA7194" stroke="#cc3c6c" stroke-width="2px"/><text class="caption" text-anchor="middle" pointer-events="none" x="0" y="5" font-size="10px" fill="#FFFFFF" font-family="Helvetica Neue, Helvetica, Arial, sans-serif"> </text></g><g class="node" aria-label="graph-node2688" transform="translate(-105.844232100093,-238.29514079295822)"><circle class="b-outline" cx="0" cy="0" r="25" fill="#8DCC93" stroke="#5db665" stroke-width="2px"/><text class="caption" text-anchor="middle" pointer-events="none" x="0" y="5" font-size="10px" fill="#2A2C34" font-family="Helvetica Neue, Helvetica, Arial, sans-serif"> 2023-02…</text></g><g class="node" aria-label="graph-node2599" transform="translate(98.42436780626065,-53.52724726248154)"><circle class="b-outline" cx="0" cy="0" r="25" fill="#57C7E3" stroke="#23b3d7" stroke-width="2px"/><text class="caption" text-anchor="middle" pointer-events="none" x="0" y="5" font-size="10px" fill="#2A2C34" font-family="Helvetica Neue, Helvetica, Arial, sans-serif"> NCIT</text></g><g class="node" aria-label="graph-node2600" transform="translate(-276.7546666508734,-284.63770100014824)"><circle class="b-outline" cx="0" cy="0" r="25" fill="#57C7E3" stroke="#23b3d7" stroke-width="2px"/><text class="caption" text-anchor="middle" pointer-events="none" x="0" y="5" font-size="10px" fill="#2A2C34" font-family="Helvetica Neue, Helvetica, Arial, sans-serif"> ONE</text></g><g class="node" aria-label="graph-node3999" transform="translate(-432.34931077479024,-511.7070812947793)"><circle class="b-outline" cx="0" cy="0" r="25" fill="#8DCC93" stroke="#5db665" stroke-width="2px"/><text class="caption" text-anchor="middle" pointer-events="none" x="0" y="5" font-size="10px" fill="#2A2C34" font-family="Helvetica Neue, Helvetica, Arial, sans-serif"> 2024-03…</text></g><g class="node" aria-label="graph-node4002" transform="translate(-420.06960533427565,-669.3455838616704)"><circle class="b-outline" cx="0" cy="0" r="25" fill="#DA7194" stroke="#cc3c6c" stroke-width="2px"/><text class="caption" text-anchor="middle" pointer-events="none" x="0" y="5" font-size="10px" fill="#FFFFFF" font-family="Helvetica Neue, Helvetica, Arial, sans-serif"> 2042833…</text></g><g class="node" aria-label="graph-node4001" transform="translate(-517.0820023958635,-646.7543327573356)"><circle class="b-outline" cx="0" cy="0" r="25" fill="#DA7194" stroke="#cc3c6c" stroke-width="2px"/><text class="caption" text-anchor="middle" pointer-events="none" x="0" y="5" font-size="10px" fill="#FFFFFF" font-family="Helvetica Neue, Helvetica, Arial, sans-serif"> 2042833…</text></g><g class="node" aria-label="graph-node4000" transform="translate(-580.0085576368893,-569.5108651833181)"><circle class="b-outline" cx="0" cy="0" r="25" fill="#DA7194" stroke="#cc3c6c" stroke-width="2px"/><text class="caption" text-anchor="middle" pointer-events="none" x="0" y="5" font-size="10px" fill="#FFFFFF" font-family="Helvetica Neue, Helvetica, Arial, sans-serif"> 2042833…</text></g><g class="node" aria-label="graph-node2601" transform="translate(348.3419180433655,-427.22969325380825)"><circle class="b-outline" cx="0" cy="0" r="25" fill="#57C7E3" stroke="#23b3d7" stroke-width="2px"/><text class="caption" text-anchor="middle" pointer-events="none" x="0" y="5" font-size="10px" fill="#2A2C34" font-family="Helvetica Neue, Helvetica, Arial, sans-serif"> NCBI</text></g><g class="node" aria-label="graph-node2689" transform="translate(40.41812199811679,-325.29060300378615)"><circle class="b-outline" cx="0" cy="0" r="25" fill="#8DCC93" stroke="#5db665" stroke-width="2px"/><text class="caption" text-anchor="middle" pointer-events="none" x="0" y="5" font-size="10px" fill="#2A2C34" font-family="Helvetica Neue, Helvetica, Arial, sans-serif"> 2023-03…</text></g><g class="node" aria-label="graph-node2701" transform="translate(-82.14290331654236,-434.61443234763027)"><circle class="b-outline" cx="0" cy="0" r="25" fill="#DA7194" stroke="#cc3c6c" stroke-width="2px"/><text class="caption" text-anchor="middle" pointer-events="none" x="0" y="5" font-size="10px" fill="#FFFFFF" font-family="Helvetica Neue, Helvetica, Arial, sans-serif"> 106</text></g><g class="node" aria-label="graph-node2602" transform="translate(-237.0596026721419,-21.89815820826303)"><circle class="b-outline" cx="0" cy="0" r="25" fill="#57C7E3" stroke="#23b3d7" stroke-width="2px"/><text class="caption" text-anchor="middle" pointer-events="none" x="0" y="5" font-size="10px" fill="#2A2C34" font-family="Helvetica Neue, Helvetica, Arial, sans-serif"> NCIT</text></g><g class="node" aria-label="graph-node2603" transform="translate(-166.21622027311773,58.026554813629105)"><circle class="b-outline" cx="0" cy="0" r="25" fill="#57C7E3" stroke="#23b3d7" stroke-width="2px"/><text class="caption" text-anchor="middle" pointer-events="none" x="0" y="5" font-size="10px" fill="#2A2C34" font-family="Helvetica Neue, Helvetica, Arial, sans-serif"> NCIT</text></g><g class="node" aria-label="graph-node2604" transform="translate(-295.29477624638463,-184.80006818420185)"><circle class="b-outline" cx="0" cy="0" r="25" fill="#57C7E3" stroke="#23b3d7" stroke-width="2px"/><text class="caption" text-anchor="middle" pointer-events="none" x="0" y="5" font-size="10px" fill="#2A2C34" font-family="Helvetica Neue, Helvetica, Arial, sans-serif"> NCIT</text></g><g class="node" aria-label="graph-node2690" transform="translate(-431.4410580212275,-294.86344982926863)"><circle class="b-outline" cx="0" cy="0" r="25" fill="#8DCC93" stroke="#5db665" stroke-width="2px"/><text class="caption" text-anchor="middle" pointer-events="none" x="0" y="5" font-size="10px" fill="#2A2C34" font-family="Helvetica Neue, Helvetica, Arial, sans-serif"> 2023-03…</text></g><g class="node" aria-label="graph-node2605" transform="translate(41.64130464302425,-134.68340270113924)"><circle class="b-outline" cx="0" cy="0" r="25" fill="#57C7E3" stroke="#23b3d7" stroke-width="2px"/><text class="caption" text-anchor="middle" pointer-events="none" x="0" y="5" font-size="10px" fill="#2A2C34" font-family="Helvetica Neue, Helvetica, Arial, sans-serif"> NCIT</text></g><g class="node" aria-label="graph-node2606" transform="translate(56.196566416388144,36.10184432158933)"><circle class="b-outline" cx="0" cy="0" r="25" fill="#57C7E3" stroke="#23b3d7" stroke-width="2px"/><text class="caption" text-anchor="middle" pointer-events="none" x="0" y="5" font-size="10px" fill="#2A2C34" font-family="Helvetica Neue, Helvetica, Arial, sans-serif"> NCIT</text></g><g class="node" aria-label="graph-node2607" transform="translate(-387.8644153729426,-149.55152764949761)"><circle class="b-outline" cx="0" cy="0" r="25" fill="#57C7E3" stroke="#23b3d7" stroke-width="2px"/><text class="caption" text-anchor="middle" pointer-events="none" x="0" y="5" font-size="10px" fill="#2A2C34" font-family="Helvetica Neue, Helvetica, Arial, sans-serif"> EFO</text></g><g class="node" aria-label="graph-node2191" transform="translate(-547.3387149991185,-211.40051179203275)"><circle class="b-outline" cx="0" cy="0" r="25" fill="#8DCC93" stroke="#5db665" stroke-width="2px"/><text class="caption" text-anchor="middle" pointer-events="none" x="0" y="5" font-size="10px" fill="#2A2C34" font-family="Helvetica Neue, Helvetica, Arial, sans-serif"> 2024-02…</text></g><g class="node" aria-label="graph-node2691" transform="translate(-429.698715375663,-29.686862672719172)"><circle class="b-outline" cx="0" cy="0" r="25" fill="#8DCC93" stroke="#5db665" stroke-width="2px"/><text class="caption" text-anchor="middle" pointer-events="none" x="0" y="5" font-size="10px" fill="#2A2C34" font-family="Helvetica Neue, Helvetica, Arial, sans-serif"> 2023-11-…</text></g><g class="node" aria-label="graph-node2703" transform="translate(-592.9637625701838,-73.5091881924519)"><circle class="b-outline" cx="0" cy="0" r="25" fill="#DA7194" stroke="#cc3c6c" stroke-width="2px"/><text class="caption" text-anchor="middle" pointer-events="none" x="0" y="5" font-size="10px" fill="#FFFFFF" font-family="Helvetica Neue, Helvetica, Arial, sans-serif"> 108</text></g><g class="node" aria-label="graph-node2702" transform="translate(-587.6849441095941,25.812200499704165)"><circle class="b-outline" cx="0" cy="0" r="25" fill="#DA7194" stroke="#cc3c6c" stroke-width="2px"/><text class="caption" text-anchor="middle" pointer-events="none" x="0" y="5" font-size="10px" fill="#FFFFFF" font-family="Helvetica Neue, Helvetica, Arial, sans-serif"> 108</text></g><g class="node" aria-label="graph-node2608" transform="translate(1.490925949056899,-45.2726693745669)"><circle class="b-outline" cx="0" cy="0" r="25" fill="#57C7E3" stroke="#23b3d7" stroke-width="2px"/><text class="caption" text-anchor="middle" pointer-events="none" x="0" y="5" font-size="10px" fill="#2A2C34" font-family="Helvetica Neue, Helvetica, Arial, sans-serif"> NCIT</text></g><g class="node" aria-label="graph-node2609" transform="translate(-104.02123326100183,134.52773463911882)"><circle class="b-outline" cx="0" cy="0" r="25" fill="#57C7E3" stroke="#23b3d7" stroke-width="2px"/><text class="caption" text-anchor="middle" pointer-events="none" x="0" y="5" font-size="10px" fill="#2A2C34" font-family="Helvetica Neue, Helvetica, Arial, sans-serif"> NCIT</text></g><g class="node" aria-label="graph-node2610" transform="translate(-202.17636046822824,-217.43362431613798)"><circle class="b-outline" cx="0" cy="0" r="25" fill="#57C7E3" stroke="#23b3d7" stroke-width="2px"/><text class="caption" text-anchor="middle" pointer-events="none" x="0" y="5" font-size="10px" fill="#2A2C34" font-family="Helvetica Neue, Helvetica, Arial, sans-serif"> OCHV</text></g><g class="node" aria-label="graph-node2692" transform="translate(-310.3858892407821,-87.1023778935262)"><circle class="b-outline" cx="0" cy="0" r="25" fill="#8DCC93" stroke="#5db665" stroke-width="2px"/><text class="caption" text-anchor="middle" pointer-events="none" x="0" y="5" font-size="10px" fill="#2A2C34" font-family="Helvetica Neue, Helvetica, Arial, sans-serif"> 2023-12…</text></g><g class="node" aria-label="graph-node3997" transform="translate(-337.3274855796049,9.050679899796517)"><circle class="b-outline" cx="0" cy="0" r="25" fill="#57C7E3" stroke="#23b3d7" stroke-width="2px"/><text class="caption" text-anchor="middle" pointer-events="none" x="0" y="5" font-size="10px" fill="#2A2C34" font-family="Helvetica Neue, Helvetica, Arial, sans-serif"> CLAO</text></g><g class="node" aria-label="graph-node3998" transform="translate(-483.3073433893171,102.21836160988255)"><circle class="b-outline" cx="0" cy="0" r="25" fill="#8DCC93" stroke="#5db665" stroke-width="2px"/><text class="caption" text-anchor="middle" pointer-events="none" x="0" y="5" font-size="10px" fill="#2A2C34" font-family="Helvetica Neue, Helvetica, Arial, sans-serif"> 2024-03…</text></g><g class="node" aria-label="graph-node4008" transform="translate(-363.17532216189113,212.93029351867543)"><circle class="b-outline" cx="0" cy="0" r="25" fill="#57C7E3" stroke="#23b3d7" stroke-width="2px"/><text class="caption" text-anchor="middle" pointer-events="none" x="0" y="5" font-size="10px" fill="#2A2C34" font-family="Helvetica Neue, Helvetica, Arial, sans-serif"> DIDEO</text></g><g class="node" aria-label="graph-node4010" transform="translate(-609.3896093092661,330.26867652724945)"><circle class="b-outline" cx="0" cy="0" r="25" fill="#8DCC93" stroke="#5db665" stroke-width="2px"/><text class="caption" text-anchor="middle" pointer-events="none" x="0" y="5" font-size="10px" fill="#2A2C34" font-family="Helvetica Neue, Helvetica, Arial, sans-serif"> 2024-03…</text></g><g class="node" aria-label="graph-node4015" transform="translate(-762.0097131806697,294.11636060238726)"><circle class="b-outline" cx="0" cy="0" r="25" fill="#DA7194" stroke="#cc3c6c" stroke-width="2px"/><text class="caption" text-anchor="middle" pointer-events="none" x="0" y="5" font-size="10px" fill="#FFFFFF" font-family="Helvetica Neue, Helvetica, Arial, sans-serif"> 1837785…</text></g><g class="node" aria-label="graph-node4014" transform="translate(-687.1597644980826,466.3705972267698)"><circle class="b-outline" cx="0" cy="0" r="25" fill="#DA7194" stroke="#cc3c6c" stroke-width="2px"/><text class="caption" text-anchor="middle" pointer-events="none" x="0" y="5" font-size="10px" fill="#FFFFFF" font-family="Helvetica Neue, Helvetica, Arial, sans-serif"> 1837785…</text></g><g class="node" aria-label="graph-node4013" transform="translate(-755.1010777990705,393.4735860939989)"><circle class="b-outline" cx="0" cy="0" r="25" fill="#DA7194" stroke="#cc3c6c" stroke-width="2px"/><text class="caption" text-anchor="middle" pointer-events="none" x="0" y="5" font-size="10px" fill="#FFFFFF" font-family="Helvetica Neue, Helvetica, Arial, sans-serif"> 1837785…</text></g><g class="node" aria-label="graph-node4009" transform="translate(-470.2777003415036,453.15322313120686)"><circle class="b-outline" cx="0" cy="0" r="25" fill="#8DCC93" stroke="#5db665" stroke-width="2px"/><text class="caption" text-anchor="middle" pointer-events="none" x="0" y="5" font-size="10px" fill="#2A2C34" font-family="Helvetica Neue, Helvetica, Arial, sans-serif"> 2024-03…</text></g><g class="node" aria-label="graph-node4012" transform="translate(-480.5052006224387,613.2289398881775)"><circle class="b-outline" cx="0" cy="0" r="25" fill="#DA7194" stroke="#cc3c6c" stroke-width="2px"/><text class="caption" text-anchor="middle" pointer-events="none" x="0" y="5" font-size="10px" fill="#FFFFFF" font-family="Helvetica Neue, Helvetica, Arial, sans-serif"> 1162015…</text></g><g class="node" aria-label="graph-node4011" transform="translate(-573.0762941797896,576.3980589157094)"><circle class="b-outline" cx="0" cy="0" r="25" fill="#DA7194" stroke="#cc3c6c" stroke-width="2px"/><text class="caption" text-anchor="middle" pointer-events="none" x="0" y="5" font-size="10px" fill="#FFFFFF" font-family="Helvetica Neue, Helvetica, Arial, sans-serif"> 1162015…</text></g><g class="node" aria-label="graph-node5195" transform="translate(-171.2725685119836,258.57762558578014)"><circle class="b-outline" cx="0" cy="0" r="25" fill="#57C7E3" stroke="#23b3d7" stroke-width="2px"/><text class="caption" text-anchor="middle" pointer-events="none" x="0" y="5" font-size="10px" fill="#2A2C34" font-family="Helvetica Neue, Helvetica, Arial, sans-serif"> GO</text></g><g class="node" aria-label="graph-node5196" transform="translate(-199.82171921305684,544.1060942820999)"><circle class="b-outline" cx="0" cy="0" r="25" fill="#8DCC93" stroke="#5db665" stroke-width="2px"/><text class="caption" text-anchor="middle" pointer-events="none" x="0" y="5" font-size="10px" fill="#2A2C34" font-family="Helvetica Neue, Helvetica, Arial, sans-serif"> 2024-03…</text></g><g class="node" aria-label="graph-node5199" transform="translate(-296.8223863425293,670.3460588436219)"><circle class="b-outline" cx="0" cy="0" r="25" fill="#DA7194" stroke="#cc3c6c" stroke-width="2px"/><text class="caption" text-anchor="middle" pointer-events="none" x="0" y="5" font-size="10px" fill="#FFFFFF" font-family="Helvetica Neue, Helvetica, Arial, sans-serif"> 1588010…</text></g><g class="node" aria-label="graph-node5198" transform="translate(-206.01616646976333,710.7616019479224)"><circle class="b-outline" cx="0" cy="0" r="25" fill="#DA7194" stroke="#cc3c6c" stroke-width="2px"/><text class="caption" text-anchor="middle" pointer-events="none" x="0" y="5" font-size="10px" fill="#FFFFFF" font-family="Helvetica Neue, Helvetica, Arial, sans-serif"> 1588010…</text></g><g class="node" aria-label="graph-node5197" transform="translate(-111.13437115546844,680.7070825998434)"><circle class="b-outline" cx="0" cy="0" r="25" fill="#DA7194" stroke="#cc3c6c" stroke-width="2px"/><text class="caption" text-anchor="middle" pointer-events="none" x="0" y="5" font-size="10px" fill="#FFFFFF" font-family="Helvetica Neue, Helvetica, Arial, sans-serif"> 1588010…</text></g><g class="node" aria-label="graph-node5200" transform="translate(725.6233866891716,-536.9025908464291)"><circle class="b-outline" cx="0" cy="0" r="25" fill="#57C7E3" stroke="#23b3d7" stroke-width="2px"/><text class="caption" text-anchor="middle" pointer-events="none" x="0" y="5" font-size="10px" fill="#2A2C34" font-family="Helvetica Neue, Helvetica, Arial, sans-serif"> UPHENO</text></g></g></svg>